<svg xmlns="http://www.w3.org/2000/svg" width="21.909" height="22" viewBox="0 0 21.909 22">
  <path id="Path_302" data-name="Path 302" d="M20.1,1.9A7.022,7.022,0,0,0,15.4,0a6.834,6.834,0,0,0-4.7,1.9A1.5,1.5,0,0,0,10.3,3a2.1,2.1,0,0,0,.4,1.1,1.5,1.5,0,0,0,1.1.4h0a2.1,2.1,0,0,0,1.1-.4,3.744,3.744,0,0,1,5.2,0A4.217,4.217,0,0,1,19,6.6a3.631,3.631,0,0,1-1.1,2.6L9.2,17.9a3.744,3.744,0,0,1-5.2,0,3.74,3.74,0,0,1-1-2.5,3.631,3.631,0,0,1,1.1-2.6L7.8,9.1a1.088,1.088,0,0,1,1.5,0,1.217,1.217,0,0,1,0,1.6L6.6,13.4a1.5,1.5,0,0,0-.4,1.1,2.1,2.1,0,0,0,.4,1.1,1.658,1.658,0,0,0,2.1,0l2.7-2.7a4.1,4.1,0,0,0,0-5.8A4,4,0,0,0,8.5,5.9,3.552,3.552,0,0,0,5.7,7L2,10.7a6.345,6.345,0,0,0-2,4.7,6.834,6.834,0,0,0,1.9,4.7A7.022,7.022,0,0,0,6.6,22a6.834,6.834,0,0,0,4.7-1.9L20,11.4a6.412,6.412,0,0,0,1.9-4.7A6.551,6.551,0,0,0,20.1,1.9Z" fill="#a4afb7"/>
</svg>
