<svg xmlns="http://www.w3.org/2000/svg" width="15.387" height="18.516" viewBox="0 0 15.387 18.516">
  <g id="Group_4233" data-name="Group 4233" transform="translate(-1100.013 -93.984)">
    <path id="Path_6488" data-name="Path 6488" d="M1107.707,109.363h-6.663a1.57,1.57,0,0,1-.588-.095.643.643,0,0,1-.418-.8.939.939,0,0,1,.291-.493c.544-.481,1.069-.983,1.587-1.492a1.3,1.3,0,0,0,.389-.848c.077-.77.128-1.541.16-2.314.043-1.025.051-2.052.126-3.075a5.092,5.092,0,0,1,3.81-4.522c.156-.039.218-.092.2-.257a5.071,5.071,0,0,1,0-.521.96.96,0,0,1,.949-.961,2.92,2.92,0,0,1,.426.008.956.956,0,0,1,.842.951c0,.195.008.39,0,.584a.146.146,0,0,0,.136.18,4.967,4.967,0,0,1,.979.345c.1.048.131.075.059.187a3.421,3.421,0,0,0,2.039,5.207,3.006,3.006,0,0,0,.7.1c.09,0,.126.024.129.124.03,1.031.079,2.061.158,3.089.029.378.066.754.126,1.128a.8.8,0,0,0,.209.431c.545.588,1.137,1.125,1.734,1.657a.949.949,0,0,1,.287.478.645.645,0,0,1-.413.814,1.52,1.52,0,0,1-.572.095Zm0-.685h5.228c.516,0,1.032,0,1.548,0,.075,0,.179.017.209-.065s-.065-.122-.118-.17c-.6-.547-1.2-1.091-1.749-1.688a1.263,1.263,0,0,1-.339-.68c-.038-.249-.076-.5-.1-.75-.1-1.006-.144-2.015-.186-3.025,0-.089-.026-.124-.12-.141a3.945,3.945,0,0,1-1.335-.506,4.1,4.1,0,0,1-1.707-5.053c.047-.118.034-.162-.094-.187-.227-.044-.45-.106-.676-.154-.09-.019-.129-.053-.126-.155.008-.305,0-.611,0-.916,0-.467-.053-.519-.514-.515-.252,0-.349.1-.35.358,0,.342-.008.685,0,1.026,0,.13-.029.188-.161.206-.151.02-.3.062-.447.1a4.5,4.5,0,0,0-3.421,4.091c-.034.878-.057,1.757-.094,2.635-.038.9-.078,1.809-.192,2.708a1.5,1.5,0,0,1-.333.916c-.214.225-.423.455-.649.668-.394.372-.792.74-1.19,1.109-.039.036-.09.074-.074.129s.082.055.132.059c.079.007.158.008.237.008Z" transform="translate(0 0)" fill="#8d8d8d"/>
    <path id="Path_6489" data-name="Path 6489" d="M1250.915,596.2a3.156,3.156,0,0,1-3-2.238.346.346,0,1,1,.654-.2,2.447,2.447,0,0,0,4.692-.007c.064-.2.17-.285.347-.283a.33.33,0,0,1,.323.251.371.371,0,0,1-.009.2,3.139,3.139,0,0,1-2.627,2.244C1251.166,596.176,1251.04,596.185,1250.915,596.2Z" transform="translate(-143.203 -483.697)" fill="#8d8d8d"/>
  </g>
</svg>
