<svg xmlns="http://www.w3.org/2000/svg" xmlns:xlink="http://www.w3.org/1999/xlink" width="69.09" height="70.078" viewBox="0 0 69.09 70.078">
  <defs>
    <radialGradient id="radial-gradient" cx="0.5" cy="0.5" r="0.5" gradientUnits="objectBoundingBox">
      <stop offset="0" stop-color="#00f0d4"/>
      <stop offset="1" stop-color="#00766d"/>
    </radialGradient>
  </defs>
  <g id="Group_4466" data-name="Group 4466" transform="translate(-1047.5 -695)">
    <path id="Path_6478" data-name="Path 6478" d="M754.213,721.513v-.734l6.164-1.7q14.1-3.877,28.191-7.757a.688.688,0,0,1,.387,0q3.81,1.052,7.622,2.1l17.495,4.81q4.525,1.244,9.049,2.489c.14.038.192.083.18.22-.028.307-.033.616-.053.925-.109,1.662-.215,3.324-.361,4.983-.117,1.332-.246,2.663-.4,3.992q-.215,1.867-.489,3.729c-.205,1.412-.432,2.821-.692,4.225-.391,2.11-.846,4.209-1.379,6.293a74.082,74.082,0,0,1-3.163,9.686,53.572,53.572,0,0,1-5.774,10.693,41.68,41.68,0,0,1-8.166,8.7,41.037,41.037,0,0,1-13.034,6.892,6.7,6.7,0,0,0-.929.311h-.169a.94.94,0,0,0-.092-.042,45.554,45.554,0,0,1-6.159-2.424,40.738,40.738,0,0,1-10.511-7.28,46.271,46.271,0,0,1-8.87-11.891,66.136,66.136,0,0,1-5.305-13.663c-.58-2.119-1.069-4.256-1.489-6.407q-.5-2.558-.868-5.133c-.184-1.28-.339-2.562-.481-3.846q-.238-2.168-.4-4.341c-.116-1.565-.216-3.132-.266-4.7C754.25,721.605,754.277,721.547,754.213,721.513Z" transform="translate(293.287 -16.3)" fill="url(#radial-gradient)"/>
    <g id="Group_4413" data-name="Group 4413" transform="translate(-442.094 201.872)">
      <g id="Group_4339" data-name="Group 4339" transform="translate(1520.267 505.353)">
        <path id="Path_6546" data-name="Path 6546" d="M1595.916,505.353l-8.806,22.158h8.293l9.318-22.158Z" transform="translate(-1587.11 -505.353)" fill="#911919"/>
        <path id="Path_6547" data-name="Path 6547" d="M1591.575,579.4l-4.464,11.234h8.293l.661-1.571Z" transform="translate(-1587.11 -568.475)" fill="#911919" opacity="0.61" style="mix-blend-mode: multiply;isolation: isolate"/>
      </g>
      <path id="Path_6548" data-name="Path 6548" d="M1552.176,650.811v-2.627a1.946,1.946,0,0,0-1.944-1.944h-8a1.946,1.946,0,0,0-1.944,1.944v2.627a11.77,11.77,0,1,0,11.893,0Zm-10.521-.689v-1.938a.573.573,0,0,1,.572-.572h8a.573.573,0,0,1,.572.572v1.938a11.808,11.808,0,0,0-9.148,0Z" transform="translate(-21.96 -120.102)" fill="#ffb600"/>
      <path id="Path_6549" data-name="Path 6549" d="M1558.98,700.392a9.563,9.563,0,1,1,9.564-9.563A9.574,9.574,0,0,1,1558.98,700.392Z" transform="translate(-34.711 -149.96)" fill="#ffec03"/>
      <g id="Group_4412" data-name="Group 4412" transform="translate(1515.225 532.531)">
        <g id="Group_4410" data-name="Group 4410" transform="translate(0 0)">
          <g id="Group_4374" data-name="Group 4374" transform="translate(9.724)">
            <g id="Group_4340" data-name="Group 4340" transform="translate(0.556 14.437)">
              <path id="Path_6550" data-name="Path 6550" d="M1625.67,787.734a7.276,7.276,0,0,1-3.04,1.032l-.022-.2a7.072,7.072,0,0,0,3.157-1.132A3.118,3.118,0,0,0,1625.67,787.734Z" transform="translate(-1622.608 -787.431)" fill="#ffb10f"/>
            </g>
            <g id="Group_4373" data-name="Group 4373">
              <g id="Group_4344" data-name="Group 4344">
                <g id="Group_4341" data-name="Group 4341" transform="translate(0 0.593)">
                  <path id="Path_6551" data-name="Path 6551" d="M1620.946,694.464c-.036-.074-.072-.132-.077-.14h0c-.425-.7-1.068-.817-2.028-.678a2.907,2.907,0,0,0,.762.781h0A1.407,1.407,0,0,0,1620.946,694.464Z" transform="translate(-1618.842 -693.592)" fill="#ffb10f"/>
                </g>
                <g id="Group_4342" data-name="Group 4342" transform="translate(0.25 1.537)">
                  <path id="Path_6552" data-name="Path 6552" d="M1622.319,700.044a1.558,1.558,0,0,1-1.271-.05,4.169,4.169,0,0,0-.513.406A1.241,1.241,0,0,0,1622.319,700.044Z" transform="translate(-1620.535 -699.994)" fill="#ffb10f"/>
                </g>
                <g id="Group_4343" data-name="Group 4343" transform="translate(1.072)">
                  <path id="Path_6553" data-name="Path 6553" d="M1627.176,690.66c-.026-.513-.247-.861-1.069-1.087a3.42,3.42,0,0,0,.043.549,1.319,1.319,0,0,1,.858.518C1627.067,690.646,1627.1,690.649,1627.176,690.66Z" transform="translate(-1626.107 -689.573)" fill="#ffb10f"/>
                </g>
              </g>
              <g id="Group_4348" data-name="Group 4348" transform="translate(1.866 0.823)">
                <g id="Group_4345" data-name="Group 4345" transform="translate(0.229 0.356)">
                  <path id="Path_6554" data-name="Path 6554" d="M1634.753,699.125a3.433,3.433,0,0,1-.01-.4c.072.024.107.036.193.068a1.343,1.343,0,0,0-.776-.923h0a5.312,5.312,0,0,0-1.119-.307C1633.382,698.83,1633.981,699.107,1634.753,699.125Z" transform="translate(-1633.042 -697.563)" fill="#ffb10f"/>
                </g>
                <g id="Group_4346" data-name="Group 4346" transform="translate(0 1.552)">
                  <path id="Path_6555" data-name="Path 6555" d="M1633.445,706.208c0-.027-.006-.053-.008-.078a1.666,1.666,0,0,1-1.23-.46,5.079,5.079,0,0,0-.719.278A1.4,1.4,0,0,0,1633.445,706.208Z" transform="translate(-1631.488 -705.67)" fill="#ffb10f"/>
                </g>
                <g id="Group_4347" data-name="Group 4347" transform="translate(1.463)">
                  <path id="Path_6556" data-name="Path 6556" d="M1642.259,696.816c.251-.662.136-1.145-.69-1.664a3.933,3.933,0,0,0-.167.613,1.431,1.431,0,0,1,.779,1.019Z" transform="translate(-1641.402 -695.152)" fill="#ffb10f"/>
                </g>
              </g>
              <g id="Group_4352" data-name="Group 4352" transform="translate(3.238 2.413)">
                <g id="Group_4349" data-name="Group 4349" transform="translate(0.661 0.064)">
                  <path id="Path_6557" data-name="Path 6557" d="M1647,708.164a1.443,1.443,0,0,0-.613-1.22h0a4.3,4.3,0,0,0-1.121-.582c.028.993.222,1.738,1.246,2.059a4.161,4.161,0,0,1,.091-.5C1646.715,707.982,1646.821,708.042,1647,708.164Z" transform="translate(-1645.27 -706.362)" fill="#ffb10f"/>
                </g>
                <g id="Group_4350" data-name="Group 4350" transform="translate(0 1.484)">
                  <path id="Path_6558" data-name="Path 6558" d="M1642.667,716.925c0-.071.01-.139.017-.2a1.655,1.655,0,0,1-1.024-.735,5.838,5.838,0,0,0-.872.14A1.5,1.5,0,0,0,1642.667,716.925Z" transform="translate(-1640.789 -715.986)" fill="#ffb10f"/>
                </g>
                <g id="Group_4351" data-name="Group 4351" transform="translate(1.929)">
                  <path id="Path_6559" data-name="Path 6559" d="M1654.512,707.923c.465-.671.477-1.229-.292-1.994a4.778,4.778,0,0,0-.357.64,1.532,1.532,0,0,1,.569,1.3Z" transform="translate(-1653.863 -705.929)" fill="#ffb10f"/>
                </g>
              </g>
              <g id="Group_4356" data-name="Group 4356" transform="translate(4.213 4.192)">
                <g id="Group_4353" data-name="Group 4353" transform="translate(0.996)">
                  <path id="Path_6560" data-name="Path 6560" d="M1655.711,720.295a1.545,1.545,0,0,0-.364-1.433h0a4.645,4.645,0,0,0-1.1-.871c-.158.907-.227,1.742.576,2.315a5.014,5.014,0,0,1,.281-.641A5.8,5.8,0,0,1,1655.711,720.295Z" transform="translate(-1654.15 -717.99)" fill="#ffb10f"/>
                </g>
                <g id="Group_4354" data-name="Group 4354" transform="translate(0 1.554)">
                  <path id="Path_6561" data-name="Path 6561" d="M1648.919,729.79c.03-.13.069-.265.118-.412a1.558,1.558,0,0,1-.646-.826,6.544,6.544,0,0,0-.992-.022C1647.784,729.55,1648.334,729.768,1648.919,729.79Z" transform="translate(-1647.399 -728.521)" fill="#ffb10f"/>
                </g>
                <g id="Group_4355" data-name="Group 4355" transform="translate(2.332 0.25)">
                  <path id="Path_6562" data-name="Path 6562" d="M1663.583,721.931a1.492,1.492,0,0,0,.17-2.249,5.452,5.452,0,0,0-.549.633,1.634,1.634,0,0,1,.308,1.525C1663.536,721.87,1663.558,721.9,1663.583,721.931Z" transform="translate(-1663.204 -719.682)" fill="#ffb10f"/>
                </g>
              </g>
              <g id="Group_4360" data-name="Group 4360" transform="translate(4.602 6.028)">
                <g id="Group_4357" data-name="Group 4357" transform="translate(1.158)">
                  <path id="Path_6563" data-name="Path 6563" d="M1659.281,733.22a1.649,1.649,0,0,0-.006-1.577h0a5.027,5.027,0,0,0-.955-1.208,2.376,2.376,0,0,0-.14,2.469.628.628,0,1,1,1.1.317Z" transform="translate(-1657.884 -730.434)" fill="#ffb10f"/>
                </g>
                <g id="Group_4358" data-name="Group 4358" transform="translate(0 1.436)">
                  <path id="Path_6564" data-name="Path 6564" d="M1651.134,741.814a4.153,4.153,0,0,1,.3-.527,1.52,1.52,0,0,1-.335-.873,7.124,7.124,0,0,0-1.06-.248A1.721,1.721,0,0,0,1651.134,741.814Z" transform="translate(-1650.037 -740.166)" fill="#ffb10f"/>
                </g>
                <g id="Group_4359" data-name="Group 4359" transform="translate(2.604 0.679)">
                  <path id="Path_6565" data-name="Path 6565" d="M1667.733,737.415a1.675,1.675,0,0,0,.792-2.382,6.437,6.437,0,0,0-.768.56,1.74,1.74,0,0,1-.072,1.68C1667.7,737.319,1667.718,737.367,1667.733,737.415Z" transform="translate(-1667.685 -735.033)" fill="#ffb10f"/>
                </g>
              </g>
              <g id="Group_4364" data-name="Group 4364" transform="translate(4.422 7.947)">
                <g id="Group_4361" data-name="Group 4361" transform="translate(1.173)">
                  <path id="Path_6566" data-name="Path 6566" d="M1658.064,746.455a1.772,1.772,0,0,0,.353-1.477h0a5.011,5.011,0,0,0-.634-1.542c-.678.777-1.27,1.673-.914,2.608a6.774,6.774,0,0,1,1.065-.691A6.1,6.1,0,0,1,1658.064,746.455Z" transform="translate(-1656.764 -743.435)" fill="#ffb10f"/>
                </g>
                <g id="Group_4362" data-name="Group 4362" transform="translate(0 1.097)">
                  <path id="Path_6567" data-name="Path 6567" d="M1649.524,752.91a4.26,4.26,0,0,1,.484-.463,1.62,1.62,0,0,1-.089-1.036,7.413,7.413,0,0,0-1.048-.543A1.792,1.792,0,0,0,1649.524,752.91Z" transform="translate(-1648.811 -750.868)" fill="#ffb10f"/>
                </g>
                <g id="Group_4363" data-name="Group 4363" transform="translate(2.465 1.199)">
                  <path id="Path_6568" data-name="Path 6568" d="M1666.988,751.565a7.146,7.146,0,0,0-.995.39,1.878,1.878,0,0,1-.464,1.592c0,.1,0,.2-.011.294A1.911,1.911,0,0,0,1666.988,751.565Z" transform="translate(-1665.519 -751.565)" fill="#ffb10f"/>
                </g>
              </g>
              <g id="Group_4368" data-name="Group 4368" transform="translate(3.597 10.012)">
                <g id="Group_4365" data-name="Group 4365" transform="translate(1.148)">
                  <path id="Path_6569" data-name="Path 6569" d="M1652.99,759.247h0a5.259,5.259,0,0,0-.04-1.808c-.834.471-1.807,1.169-1.948,2.062a8.126,8.126,0,0,1,1.045-.324,6.411,6.411,0,0,1-.385,1.689A2.2,2.2,0,0,0,1652.99,759.247Z" transform="translate(-1651.005 -757.438)" fill="#ffb10f"/>
                </g>
                <g id="Group_4366" data-name="Group 4366" transform="translate(0 0.421)">
                  <path id="Path_6570" data-name="Path 6570" d="M1644.261,761.976a1.68,1.68,0,0,1,.3-.777,7.059,7.059,0,0,0-.871-.908,2.08,2.08,0,0,0-.28,2.108A5.525,5.525,0,0,1,1644.261,761.976Z" transform="translate(-1643.223 -760.291)" fill="#ffb10f"/>
                </g>
                <g id="Group_4367" data-name="Group 4367" transform="translate(1.711 1.803)">
                  <path id="Path_6571" data-name="Path 6571" d="M1657.514,769.657a8.458,8.458,0,0,0-1.183.076,2.327,2.327,0,0,1-1.472,1.683c-.013.03-.026.06-.041.09A2.273,2.273,0,0,0,1657.514,769.657Z" transform="translate(-1654.819 -769.657)" fill="#ffb10f"/>
                </g>
              </g>
              <g id="Group_4372" data-name="Group 4372" transform="translate(1.795 11.614)">
                <g id="Group_4369" data-name="Group 4369" transform="translate(0.929 0.262)">
                  <path id="Path_6572" data-name="Path 6572" d="M1638.746,772.961a2.478,2.478,0,0,0,.978-1.01h0a5.406,5.406,0,0,0,.523-1.883h0c-2.016.526-3.215,1.4-2.9,3.311A3.686,3.686,0,0,0,1638.746,772.961Z" transform="translate(-1637.3 -770.068)" fill="#ffb10f"/>
                </g>
                <g id="Group_4370" data-name="Group 4370">
                  <path id="Path_6573" data-name="Path 6573" d="M1631.87,771.783a2.5,2.5,0,0,1,.768-2.3,7.381,7.381,0,0,0-.621-1.187,2.949,2.949,0,0,0-1.01,1.769A2.982,2.982,0,0,0,1631.87,771.783Z" transform="translate(-1631.006 -768.295)" fill="#ffb10f"/>
                </g>
                <g id="Group_4371" data-name="Group 4371" transform="translate(1.118 2.25)">
                  <path id="Path_6574" data-name="Path 6574" d="M1642.137,783.778a8.921,8.921,0,0,0-1.263-.235,2.916,2.916,0,0,1-2.293,1.4A2.629,2.629,0,0,0,1642.137,783.778Z" transform="translate(-1638.581 -783.543)" fill="#ffb10f"/>
                </g>
              </g>
            </g>
          </g>
          <g id="Group_4409" data-name="Group 4409">
            <g id="Group_4375" data-name="Group 4375" transform="translate(4.653 14.437)">
              <path id="Path_6575" data-name="Path 6575" d="M1584.567,787.734a7.276,7.276,0,0,0,3.04,1.032l.022-.2a7.073,7.073,0,0,1-3.156-1.132A3.118,3.118,0,0,1,1584.567,787.734Z" transform="translate(-1584.473 -787.431)" fill="#ffb10f"/>
            </g>
            <g id="Group_4408" data-name="Group 4408">
              <g id="Group_4379" data-name="Group 4379" transform="translate(6.224)">
                <g id="Group_4376" data-name="Group 4376" transform="translate(0.037 0.593)">
                  <path id="Path_6576" data-name="Path 6576" d="M1595.373,694.464c.036-.074.072-.132.077-.14h0c.425-.7,1.068-.817,2.028-.678a2.911,2.911,0,0,1-.762.781h0A1.408,1.408,0,0,1,1595.373,694.464Z" transform="translate(-1595.373 -693.592)" fill="#ffb10f"/>
                </g>
                <g id="Group_4377" data-name="Group 4377" transform="translate(0.108 1.537)">
                  <path id="Path_6577" data-name="Path 6577" d="M1595.853,700.044a1.559,1.559,0,0,0,1.271-.05,4.172,4.172,0,0,1,.513.406A1.241,1.241,0,0,1,1595.853,700.044Z" transform="translate(-1595.853 -699.994)" fill="#ffb10f"/>
                </g>
                <g id="Group_4378" data-name="Group 4378">
                  <path id="Path_6578" data-name="Path 6578" d="M1595.124,690.66c.026-.513.247-.861,1.069-1.087a3.371,3.371,0,0,1-.043.549,1.32,1.32,0,0,0-.858.518C1595.232,690.646,1595.2,690.649,1595.124,690.66Z" transform="translate(-1595.124 -689.573)" fill="#ffb10f"/>
                </g>
              </g>
              <g id="Group_4383" data-name="Group 4383" transform="translate(4.062 0.823)">
                <g id="Group_4380" data-name="Group 4380" transform="translate(0.314 0.356)">
                  <path id="Path_6579" data-name="Path 6579" d="M1582.776,699.125a3.41,3.41,0,0,0,.009-.4c-.072.024-.107.036-.193.068a1.342,1.342,0,0,1,.776-.923h0a5.311,5.311,0,0,1,1.119-.307C1584.147,698.83,1583.547,699.107,1582.776,699.125Z" transform="translate(-1582.592 -697.563)" fill="#ffb10f"/>
                </g>
                <g id="Group_4381" data-name="Group 4381" transform="translate(0.481 1.552)">
                  <path id="Path_6580" data-name="Path 6580" d="M1583.723,706.208c0-.027.006-.053.008-.078a1.666,1.666,0,0,0,1.23-.46,5.079,5.079,0,0,1,.719.278A1.4,1.4,0,0,1,1583.723,706.208Z" transform="translate(-1583.723 -705.67)" fill="#ffb10f"/>
                </g>
                <g id="Group_4382" data-name="Group 4382">
                  <path id="Path_6581" data-name="Path 6581" d="M1580.583,696.816c-.251-.662-.136-1.145.69-1.664a3.905,3.905,0,0,1,.167.613,1.431,1.431,0,0,0-.779,1.019Z" transform="translate(-1580.466 -695.152)" fill="#ffb10f"/>
                </g>
              </g>
              <g id="Group_4387" data-name="Group 4387" transform="translate(2.226 2.413)">
                <g id="Group_4384" data-name="Group 4384" transform="translate(0.506 0.064)">
                  <path id="Path_6582" data-name="Path 6582" d="M1571.456,708.164a1.443,1.443,0,0,1,.613-1.22h0a4.3,4.3,0,0,1,1.121-.582c-.028.993-.222,1.738-1.245,2.059a4.206,4.206,0,0,0-.091-.5C1571.745,707.982,1571.639,708.042,1571.456,708.164Z" transform="translate(-1571.456 -706.362)" fill="#ffb10f"/>
                </g>
                <g id="Group_4385" data-name="Group 4385" transform="translate(1.005 1.484)">
                  <path id="Path_6583" data-name="Path 6583" d="M1574.858,716.925c0-.071-.01-.139-.017-.2a1.655,1.655,0,0,0,1.023-.735,5.838,5.838,0,0,1,.872.14A1.5,1.5,0,0,1,1574.858,716.925Z" transform="translate(-1574.841 -715.986)" fill="#ffb10f"/>
                </g>
                <g id="Group_4386" data-name="Group 4386">
                  <path id="Path_6584" data-name="Path 6584" d="M1568.349,707.923c-.465-.671-.478-1.229.292-1.994a4.8,4.8,0,0,1,.357.64,1.532,1.532,0,0,0-.569,1.3Z" transform="translate(-1568.026 -705.929)" fill="#ffb10f"/>
                </g>
              </g>
              <g id="Group_4391" data-name="Group 4391" transform="translate(0.845 4.192)">
                <g id="Group_4388" data-name="Group 4388" transform="translate(0.707)">
                  <path id="Path_6585" data-name="Path 6585" d="M1563.5,720.295a1.546,1.546,0,0,1,.364-1.433h0a4.647,4.647,0,0,1,1.1-.871c.158.907.227,1.742-.576,2.315a5.03,5.03,0,0,0-.281-.641A5.782,5.782,0,0,0,1563.5,720.295Z" transform="translate(-1563.453 -717.99)" fill="#ffb10f"/>
                </g>
                <g id="Group_4389" data-name="Group 4389" transform="translate(1.669 1.554)">
                  <path id="Path_6586" data-name="Path 6586" d="M1570.092,729.79c-.03-.13-.069-.265-.118-.412a1.558,1.558,0,0,0,.646-.826,6.544,6.544,0,0,1,.992-.022C1571.227,729.55,1570.677,729.768,1570.092,729.79Z" transform="translate(-1569.974 -728.521)" fill="#ffb10f"/>
                </g>
                <g id="Group_4390" data-name="Group 4390" transform="translate(0 0.25)">
                  <path id="Path_6587" data-name="Path 6587" d="M1559.26,721.931a1.492,1.492,0,0,1-.17-2.249,5.428,5.428,0,0,1,.549.633,1.634,1.634,0,0,0-.308,1.525C1559.307,721.87,1559.285,721.9,1559.26,721.931Z" transform="translate(-1558.664 -719.682)" fill="#ffb10f"/>
                </g>
              </g>
              <g id="Group_4395" data-name="Group 4395" transform="translate(0.121 6.028)">
                <g id="Group_4392" data-name="Group 4392" transform="translate(0.888)">
                  <path id="Path_6588" data-name="Path 6588" d="M1559.975,733.22a1.65,1.65,0,0,1,.006-1.577h0a5.02,5.02,0,0,1,.955-1.208,2.377,2.377,0,0,1,.141,2.469.628.628,0,1,0-1.1.317Z" transform="translate(-1559.776 -730.434)" fill="#ffb10f"/>
                </g>
                <g id="Group_4393" data-name="Group 4393" transform="translate(2.247 1.436)">
                  <path id="Path_6589" data-name="Path 6589" d="M1569.283,741.814a4.123,4.123,0,0,0-.3-.527,1.518,1.518,0,0,0,.335-.873,7.113,7.113,0,0,1,1.06-.248A1.721,1.721,0,0,1,1569.283,741.814Z" transform="translate(-1568.986 -740.166)" fill="#ffb10f"/>
                </g>
                <g id="Group_4394" data-name="Group 4394" transform="translate(0 0.679)">
                  <path id="Path_6590" data-name="Path 6590" d="M1554.747,737.415a1.675,1.675,0,0,1-.792-2.382,6.457,6.457,0,0,1,.768.56,1.738,1.738,0,0,0,.072,1.68C1554.778,737.319,1554.762,737.367,1554.747,737.415Z" transform="translate(-1553.757 -735.033)" fill="#ffb10f"/>
                </g>
              </g>
              <g id="Group_4399" data-name="Group 4399" transform="translate(0 7.947)">
                <g id="Group_4396" data-name="Group 4396" transform="translate(1.083)">
                  <path id="Path_6591" data-name="Path 6591" d="M1560.663,746.455a1.771,1.771,0,0,1-.353-1.477h0a5,5,0,0,1,.634-1.542c.678.777,1.269,1.673.914,2.608a6.774,6.774,0,0,0-1.065-.691A6.1,6.1,0,0,0,1560.663,746.455Z" transform="translate(-1560.276 -743.435)" fill="#ffb10f"/>
                </g>
                <g id="Group_4397" data-name="Group 4397" transform="translate(2.747 1.097)">
                  <path id="Path_6592" data-name="Path 6592" d="M1572.036,752.91a4.282,4.282,0,0,0-.484-.463,1.621,1.621,0,0,0,.089-1.036,7.405,7.405,0,0,1,1.048-.543A1.792,1.792,0,0,1,1572.036,752.91Z" transform="translate(-1571.552 -750.868)" fill="#ffb10f"/>
                </g>
                <g id="Group_4398" data-name="Group 4398" transform="translate(0 1.199)">
                  <path id="Path_6593" data-name="Path 6593" d="M1552.945,751.565a7.157,7.157,0,0,1,.995.39,1.878,1.878,0,0,0,.464,1.592c0,.1,0,.2.011.294A1.911,1.911,0,0,1,1552.945,751.565Z" transform="translate(-1552.935 -751.565)" fill="#ffb10f"/>
                </g>
              </g>
              <g id="Group_4403" data-name="Group 4403" transform="translate(0.362 10.012)">
                <g id="Group_4400" data-name="Group 4400" transform="translate(1.209)">
                  <path id="Path_6594" data-name="Path 6594" d="M1563.649,759.247h0a5.253,5.253,0,0,1,.04-1.808c.834.471,1.807,1.169,1.948,2.062a8.132,8.132,0,0,0-1.045-.324,6.4,6.4,0,0,0,.385,1.689A2.2,2.2,0,0,1,1563.649,759.247Z" transform="translate(-1563.585 -757.438)" fill="#ffb10f"/>
                </g>
                <g id="Group_4401" data-name="Group 4401" transform="translate(3.067 0.421)">
                  <path id="Path_6595" data-name="Path 6595" d="M1576.475,761.976a1.683,1.683,0,0,0-.3-.777,7.051,7.051,0,0,1,.871-.908,2.081,2.081,0,0,1,.28,2.108A5.542,5.542,0,0,0,1576.475,761.976Z" transform="translate(-1576.174 -760.291)" fill="#ffb10f"/>
                </g>
                <g id="Group_4402" data-name="Group 4402" transform="translate(0 1.803)">
                  <path id="Path_6596" data-name="Path 6596" d="M1555.387,769.657a8.458,8.458,0,0,1,1.183.076,2.327,2.327,0,0,0,1.472,1.683c.013.03.027.06.04.09A2.273,2.273,0,0,1,1555.387,769.657Z" transform="translate(-1555.387 -769.657)" fill="#ffb10f"/>
                </g>
              </g>
              <g id="Group_4407" data-name="Group 4407" transform="translate(1.897 11.614)">
                <g id="Group_4404" data-name="Group 4404" transform="translate(0.796 0.262)">
                  <path id="Path_6597" data-name="Path 6597" d="M1572.686,772.961a2.478,2.478,0,0,1-.978-1.01h0a5.4,5.4,0,0,1-.523-1.883h0c2.017.526,3.215,1.4,2.9,3.311A3.688,3.688,0,0,1,1572.686,772.961Z" transform="translate(-1571.183 -770.068)" fill="#ffb10f"/>
                </g>
                <g id="Group_4405" data-name="Group 4405" transform="translate(3.042)">
                  <path id="Path_6598" data-name="Path 6598" d="M1587.18,771.783a2.5,2.5,0,0,0-.768-2.3,7.373,7.373,0,0,1,.621-1.187,2.949,2.949,0,0,1,1.01,1.769A2.981,2.981,0,0,1,1587.18,771.783Z" transform="translate(-1586.412 -768.295)" fill="#ffb10f"/>
                </g>
                <g id="Group_4406" data-name="Group 4406" transform="translate(0 2.25)">
                  <path id="Path_6599" data-name="Path 6599" d="M1565.79,783.778a8.917,8.917,0,0,1,1.263-.235,2.916,2.916,0,0,0,2.294,1.4A2.63,2.63,0,0,1,1565.79,783.778Z" transform="translate(-1565.79 -783.543)" fill="#ffb10f"/>
                </g>
              </g>
            </g>
          </g>
        </g>
        <g id="Group_4411" data-name="Group 4411" transform="translate(8.009 14.872)">
          <path id="Path_6600" data-name="Path 6600" d="M1611.69,790.375h-.156a.364.364,0,0,0-.363.363v1.077a.364.364,0,0,0,.363.363h.156a.364.364,0,0,0,.363-.363v-1.077a.364.364,0,0,0-.363-.363Z" transform="translate(-1610.588 -790.375)" fill="#ffb10f"/>
          <path id="Path_6601" data-name="Path 6601" d="M1607.718,791.206a.374.374,0,0,1,.065-.209.362.362,0,0,0-.161-.038h-.09a.288.288,0,0,0-.31.247v1.137a.288.288,0,0,0,.31.247h.09a.362.362,0,0,0,.161-.038.373.373,0,0,1-.065-.209Z" transform="translate(-1607.222 -790.873)" fill="#ffb10f"/>
          <path id="Path_6602" data-name="Path 6602" d="M1617.549,790.959h-.09a.361.361,0,0,0-.161.038.374.374,0,0,1,.065.209v1.137a.373.373,0,0,1-.065.209.361.361,0,0,0,.161.038h.09a.288.288,0,0,0,.31-.247v-1.137A.288.288,0,0,0,1617.549,790.959Z" transform="translate(-1615.811 -790.873)" fill="#ffb10f"/>
        </g>
      </g>
      <path id="Path_6603" data-name="Path 6603" d="M1508.7,505.353h9.624l10.509,22.618h-9.126Z" fill="#fa352c"/>
    </g>
  </g>
</svg>
