<svg xmlns="http://www.w3.org/2000/svg" width="12.117" height="15.307" viewBox="0 0 12.117 15.307">
  <path id="Path_6479" data-name="Path 6479" d="M732.33,946.332q0-2.84,0-5.68a1.794,1.794,0,0,1,1.846-1.883q3.709-.018,7.419,0a1.8,1.8,0,0,1,1.846,1.885q0,5.743,0,11.487c0,.814-.591,1.152-1.311.747-1.309-.737-2.619-1.472-3.916-2.23a.751.751,0,0,0-.906,0c-1.174.744-2.375,1.446-3.567,2.162-.318.191-.633.377-1.019.146a.952.952,0,0,1-.4-.956C732.333,950.119,732.329,948.226,732.33,946.332Z" transform="translate(-731.827 -938.261)" fill="none" stroke="#8d8d8d" stroke-width="1"/>
</svg>
