<svg xmlns="http://www.w3.org/2000/svg" width="13.659" height="17.587" viewBox="0 0 13.659 17.587">
  <path id="Path_6468" data-name="Path 6468" d="M732.33,948.064q0-3.489,0-6.978a2.2,2.2,0,0,1,2.268-2.314q4.557-.022,9.115,0a2.206,2.206,0,0,1,2.269,2.315q.006,7.056,0,14.113c0,1-.727,1.416-1.611.918-1.608-.905-3.218-1.809-4.812-2.74a.922.922,0,0,0-1.113,0c-1.443.914-2.918,1.776-4.383,2.656-.391.235-.778.464-1.252.179a1.169,1.169,0,0,1-.486-1.174C732.334,952.716,732.33,950.39,732.33,948.064Z" transform="translate(-732.326 -938.761)"/>
</svg>
