<svg xmlns="http://www.w3.org/2000/svg" width="17.423" height="17.781" viewBox="0 0 17.423 17.781">
  <g id="iconfinder_new-google-favicon_682665" transform="translate(-17.646 -14.019)">
    <path id="Path_6946" data-name="Path 6946" d="M23.632,14.516a8.941,8.941,0,0,0-5.037,4.411,8.8,8.8,0,0,0-.774,2.237A8.9,8.9,0,0,0,24.234,31.51a9.513,9.513,0,0,0,4.55.048,7.845,7.845,0,0,0,5.893-5.582,10.439,10.439,0,0,0,.225-4.722H26.537v3.47h4.846a4.187,4.187,0,0,1-1.778,2.748,5.092,5.092,0,0,1-1.959.774,5.864,5.864,0,0,1-2.122,0,5.263,5.263,0,0,1-1.979-.855,5.5,5.5,0,0,1-2.036-2.729,5.394,5.394,0,0,1,0-3.46,5.552,5.552,0,0,1,1.29-2.1,5.227,5.227,0,0,1,5.266-1.372,4.786,4.786,0,0,1,1.916,1.128l1.634-1.634c.287-.292.588-.573.865-.875a8.668,8.668,0,0,0-2.863-1.773A8.972,8.972,0,0,0,23.632,14.516Z" transform="translate(0 -0.011)" fill="#fff"/>
    <g id="Group_4843" data-name="Group 4843" transform="translate(18.595 14.019)">
      <path id="Path_6947" data-name="Path 6947" d="M42.537,14.505a9,9,0,0,1,5.988.053,8.638,8.638,0,0,1,2.863,1.773c-.277.3-.578.583-.865.875L48.888,18.84a4.841,4.841,0,0,0-1.916-1.128,5.248,5.248,0,0,0-2.609-.105,5.312,5.312,0,0,0-2.657,1.477,5.516,5.516,0,0,0-1.29,2.1c-.97-.755-1.94-1.505-2.915-2.26A8.932,8.932,0,0,1,42.537,14.505Z" transform="translate(-37.5 -14.019)" fill="#ea4335"/>
    </g>
    <g id="Group_4844" data-name="Group 4844" transform="translate(17.651 18.911)">
      <path id="Path_6948" data-name="Path 6948" d="M17.926,118.637A8.865,8.865,0,0,1,18.7,116.4c.97.755,1.94,1.505,2.915,2.26a5.362,5.362,0,0,0,0,3.46q-1.455,1.133-2.91,2.26A8.845,8.845,0,0,1,17.926,118.637Z" transform="translate(-17.751 -116.4)" fill="#fbbc05"/>
    </g>
    <g id="Group_4845" data-name="Group 4845" transform="translate(26.533 21.239)">
      <path id="Path_6949" data-name="Path 6949" d="M203.6,165.1h8.363a10.514,10.514,0,0,1-.225,4.722,8.076,8.076,0,0,1-2.251,3.689l-2.824-2.194a4.187,4.187,0,0,0,1.778-2.748H203.6Q203.607,166.835,203.6,165.1Z" transform="translate(-203.6 -165.1)" fill="#4285f4"/>
    </g>
    <g id="Group_4846" data-name="Group 4846" transform="translate(18.595 24.637)">
      <path id="Path_6950" data-name="Path 6950" d="M37.5,238.46q1.455-1.125,2.91-2.26a5.524,5.524,0,0,0,2.036,2.729,5.3,5.3,0,0,0,1.979.855,5.759,5.759,0,0,0,2.122,0,5.092,5.092,0,0,0,1.959-.774l2.824,2.194a8.021,8.021,0,0,1-3.642,1.892,9.513,9.513,0,0,1-4.55-.048,8.784,8.784,0,0,1-3.231-1.63A8.95,8.95,0,0,1,37.5,238.46Z" transform="translate(-37.5 -236.2)" fill="#34a853"/>
    </g>
  </g>
</svg>
