<svg xmlns="http://www.w3.org/2000/svg" xmlns:xlink="http://www.w3.org/1999/xlink" width="72" height="72" viewBox="0 0 72 72">
  <defs>
    <clipPath id="clip-path">
      <rect id="Rectangle_825" data-name="Rectangle 825" width="72" height="72" rx="10" fill="#fff" stroke="#707070" stroke-width="1"/>
    </clipPath>
    <clipPath id="clip-path-2">
      <circle id="Ellipse_50" data-name="Ellipse 50" cx="4.42" cy="4.42" r="4.42" fill="none"/>
    </clipPath>
    <clipPath id="clip-path-3">
      <path id="Path_6452" data-name="Path 6452" d="M186.241,223.935H135.492a1.8,1.8,0,0,1-1.837-1.75V191.67a1.8,1.8,0,0,1,1.837-1.75h50.749a1.8,1.8,0,0,1,1.836,1.75v30.515A1.8,1.8,0,0,1,186.241,223.935Z" transform="translate(-133.655 -189.92)" fill="none"/>
    </clipPath>
  </defs>
  <g id="Mask_Group_8" data-name="Mask Group 8" clip-path="url(#clip-path)">
    <g id="Rectangle_828" data-name="Rectangle 828" transform="translate(-47 -14)" fill="#7c39ea" stroke="#e0e0e0" stroke-width="1">
      <rect width="159" height="106" rx="15" stroke="none"/>
      <rect x="0.5" y="0.5" width="158" height="105" rx="14.5" fill="none"/>
    </g>
    <g id="Group_4203" data-name="Group 4203" transform="translate(-33.092 -8.117)">
      <g id="Group_4136" data-name="Group 4136" transform="translate(81.779 24.016)">
        <rect id="Rectangle_775" data-name="Rectangle 775" width="18.122" height="11.551" rx="5.323" transform="matrix(0.951, -0.309, 0.309, 0.951, 0, 5.602)" fill="#ffce55"/>
        <rect id="Rectangle_776" data-name="Rectangle 776" width="18.122" height="2.352" transform="matrix(0.951, -0.309, 0.309, 0.951, 0.684, 7.707)" fill="#404041"/>
        <path id="Path_6367" data-name="Path 6367" d="M388.584,175.68a.986.986,0,1,1-1.242-.633A.986.986,0,0,1,388.584,175.68Z" transform="translate(-370.09 -166.326)" fill="#404041"/>
      </g>
      <g id="Group_4152" data-name="Group 4152" transform="translate(0 20.986)">
        <g id="Group_4143" data-name="Group 4143" transform="translate(0 2.548)">
          <path id="Path_6368" data-name="Path 6368" d="M66.486,150.239l-11.651,11.81L38.864,146.292l10.08-10.217h0l1.387-.1,1.575-.118Z" transform="translate(-38.864 -135.854)" fill="#e6e7e8"/>
          <path id="Path_6369" data-name="Path 6369" d="M81.961,136.075l1.39,1.372,1.572-1.593h0Z" transform="translate(-71.881 -135.854)" fill="#a6a8ab"/>
          <g id="Group_4138" data-name="Group 4138" transform="translate(2.792 2.424)">
            <rect id="Rectangle_777" data-name="Rectangle 777" width="4.661" height="4.661" transform="matrix(0.702, -0.712, 0.712, 0.702, 0, 8.742)" fill="#d0d2d3"/>
            <g id="Group_4137" data-name="Group 4137" transform="translate(4.478 0)">
              <rect id="Rectangle_778" data-name="Rectangle 778" width="6.39" height="0.574" transform="translate(0 4.549) rotate(-45.387)" fill="#d0d2d3"/>
              <rect id="Rectangle_779" data-name="Rectangle 779" width="6.39" height="0.574" transform="translate(0.854 5.391) rotate(-45.387)" fill="#d0d2d3"/>
              <rect id="Rectangle_780" data-name="Rectangle 780" width="6.39" height="0.574" transform="translate(1.709 6.234) rotate(-45.387)" fill="#d0d2d3"/>
              <rect id="Rectangle_781" data-name="Rectangle 781" width="6.39" height="0.574" transform="translate(2.563 7.077) rotate(-45.387)" fill="#d0d2d3"/>
            </g>
          </g>
          <g id="Group_4140" data-name="Group 4140" transform="translate(7.34 6.911)">
            <rect id="Rectangle_782" data-name="Rectangle 782" width="4.661" height="4.661" transform="matrix(0.702, -0.712, 0.712, 0.702, 0, 8.742)" fill="#d0d2d3"/>
            <g id="Group_4139" data-name="Group 4139" transform="translate(4.478 0)">
              <rect id="Rectangle_783" data-name="Rectangle 783" width="6.39" height="0.574" transform="translate(0 4.549) rotate(-45.387)" fill="#d0d2d3"/>
              <rect id="Rectangle_784" data-name="Rectangle 784" width="6.39" height="0.574" transform="translate(0.854 5.391) rotate(-45.387)" fill="#d0d2d3"/>
              <rect id="Rectangle_785" data-name="Rectangle 785" width="6.39" height="0.574" transform="translate(1.709 6.234) rotate(-45.387)" fill="#d0d2d3"/>
              <rect id="Rectangle_786" data-name="Rectangle 786" width="6.39" height="0.574" transform="translate(2.563 7.077) rotate(-45.387)" fill="#d0d2d3"/>
            </g>
          </g>
          <g id="Group_4142" data-name="Group 4142" transform="translate(11.888 11.399)">
            <rect id="Rectangle_787" data-name="Rectangle 787" width="4.661" height="4.661" transform="matrix(0.702, -0.712, 0.712, 0.702, 0, 8.742)" fill="#d0d2d3"/>
            <g id="Group_4141" data-name="Group 4141" transform="translate(4.478)">
              <rect id="Rectangle_788" data-name="Rectangle 788" width="6.39" height="0.574" transform="translate(0 4.549) rotate(-45.387)" fill="#d0d2d3"/>
              <rect id="Rectangle_789" data-name="Rectangle 789" width="6.39" height="0.574" transform="translate(0.854 5.391) rotate(-45.387)" fill="#d0d2d3"/>
              <rect id="Rectangle_790" data-name="Rectangle 790" width="6.39" height="0.574" transform="translate(1.709 6.234) rotate(-45.387)" fill="#d0d2d3"/>
              <rect id="Rectangle_791" data-name="Rectangle 791" width="6.39" height="0.574" transform="translate(2.563 7.077) rotate(-45.387)" fill="#d0d2d3"/>
            </g>
          </g>
        </g>
        <g id="Group_4150" data-name="Group 4150" transform="translate(0.653)">
          <path id="Path_6370" data-name="Path 6370" d="M68.808,140.651,56.136,151.359l-14.48-17.137,10.963-9.263h0l1.391.022,1.579.025Z" transform="translate(-41.656 -124.959)" fill="#f9fafe"/>
          <path id="Path_6371" data-name="Path 6371" d="M88.529,124.959l1.26,1.492,1.709-1.444h0Z" transform="translate(-77.566 -124.959)" fill="#a6a8ab"/>
          <g id="Group_4145" data-name="Group 4145" transform="translate(2.715 2.345)">
            <rect id="Rectangle_792" data-name="Rectangle 792" width="4.661" height="4.661" transform="translate(0 7.894) rotate(-40.196)" fill="#d0d2d3"/>
            <g id="Group_4144" data-name="Group 4144" transform="translate(4.84 0)">
              <rect id="Rectangle_793" data-name="Rectangle 793" width="6.39" height="0.574" transform="matrix(0.764, -0.645, 0.645, 0.764, 0, 4.124)" fill="#d0d2d3"/>
              <rect id="Rectangle_794" data-name="Rectangle 794" width="6.39" height="0.574" transform="matrix(0.764, -0.645, 0.645, 0.764, 0.775, 5.041)" fill="#d0d2d3"/>
              <rect id="Rectangle_795" data-name="Rectangle 795" width="6.39" height="0.574" transform="matrix(0.764, -0.645, 0.645, 0.764, 1.549, 5.957)" fill="#d0d2d3"/>
              <rect id="Rectangle_796" data-name="Rectangle 796" width="6.39" height="0.574" transform="matrix(0.764, -0.645, 0.645, 0.764, 2.324, 6.874)" fill="#d0d2d3"/>
            </g>
          </g>
          <g id="Group_4147" data-name="Group 4147" transform="translate(6.838 7.226)">
            <rect id="Rectangle_797" data-name="Rectangle 797" width="4.661" height="4.661" transform="matrix(0.764, -0.645, 0.645, 0.764, 0, 7.894)" fill="#d0d2d3"/>
            <g id="Group_4146" data-name="Group 4146" transform="translate(4.84 0)">
              <rect id="Rectangle_798" data-name="Rectangle 798" width="6.39" height="0.574" transform="matrix(0.764, -0.645, 0.645, 0.764, 0, 4.124)" fill="#d0d2d3"/>
              <rect id="Rectangle_799" data-name="Rectangle 799" width="6.39" height="0.574" transform="translate(0.775 5.041) rotate(-40.196)" fill="#d0d2d3"/>
              <rect id="Rectangle_800" data-name="Rectangle 800" width="6.39" height="0.574" transform="translate(1.549 5.957) rotate(-40.196)" fill="#d0d2d3"/>
              <rect id="Rectangle_801" data-name="Rectangle 801" width="6.39" height="0.574" transform="translate(2.324 6.874) rotate(-40.196)" fill="#d0d2d3"/>
            </g>
          </g>
          <g id="Group_4149" data-name="Group 4149" transform="translate(10.962 12.106)">
            <rect id="Rectangle_802" data-name="Rectangle 802" width="4.661" height="4.661" transform="translate(0 7.894) rotate(-40.196)" fill="#d0d2d3"/>
            <g id="Group_4148" data-name="Group 4148" transform="translate(4.84 0)">
              <rect id="Rectangle_803" data-name="Rectangle 803" width="6.39" height="0.574" transform="matrix(0.764, -0.645, 0.645, 0.764, 0, 4.124)" fill="#d0d2d3"/>
              <rect id="Rectangle_804" data-name="Rectangle 804" width="6.39" height="0.574" transform="matrix(0.764, -0.645, 0.645, 0.764, 0.775, 5.041)" fill="#d0d2d3"/>
              <rect id="Rectangle_805" data-name="Rectangle 805" width="6.39" height="0.574" transform="matrix(0.764, -0.645, 0.645, 0.764, 1.549, 5.957)" fill="#d0d2d3"/>
              <rect id="Rectangle_806" data-name="Rectangle 806" width="6.39" height="0.574" transform="matrix(0.764, -0.645, 0.645, 0.764, 2.324, 6.874)" fill="#d0d2d3"/>
            </g>
          </g>
        </g>
        <g id="Group_4151" data-name="Group 4151" transform="translate(8.59 2.993)">
          <path id="Path_6372" data-name="Path 6372" d="M77.348,148.523l-1.552-2.68a1.533,1.533,0,0,1,.558-2.094l9.992-5.787a1.533,1.533,0,0,1,2.094.558l11.018,19.025a1.533,1.533,0,0,1-.558,2.094l-8.068,4.673-3.251,1.883-1.326.768a1.533,1.533,0,0,1-2.094-.558l-7.93-13.692a1.533,1.533,0,0,1,.558-2.094h0A1.533,1.533,0,0,0,77.348,148.523Z" transform="translate(-75.59 -137.754)" fill="#ffce55"/>
          <path id="Path_6373" data-name="Path 6373" d="M101.687,160.782,88.18,168.605l-8.206-14.169.709-.41a2.183,2.183,0,0,0,.795-2.983l-2.188-3.779,10.91-6.319Z" transform="translate(-78.424 -140.2)" fill="none" stroke="#fff" stroke-miterlimit="10" stroke-width="0.35" opacity="0.3"/>
          <path id="Path_6374" data-name="Path 6374" d="M128.48,169.349h0a.941.941,0,0,0,.343-1.287l-8.37-14.452a.941.941,0,0,0-1.287-.343h0a.941.941,0,0,0-.343,1.286l8.37,14.452A.941.941,0,0,0,128.48,169.349Z" transform="translate(-108.614 -149.542)" fill="#fff" opacity="0.2"/>
        </g>
      </g>
      <g id="Group_4159" data-name="Group 4159" transform="translate(4.746 1.098)">
        <g id="Group_4154" data-name="Group 4154" transform="translate(17.516 2.449)">
          <path id="Path_6375" data-name="Path 6375" d="M199.708,54.5a2.262,2.262,0,0,0,.061-.521,2.292,2.292,0,0,0-3.247-2.087,1.688,1.688,0,0,0-3.252-.425,1.933,1.933,0,0,0-2.2,1.011c-.069-.006-.139-.011-.21-.011a2.3,2.3,0,0,0-2.28,2.033Z" transform="translate(-188.579 -50.39)" fill="#caeaff"/>
          <g id="Group_4153" data-name="Group 4153" transform="translate(5.7)">
            <path id="Path_6376" data-name="Path 6376" d="M213.514,50.39a1.678,1.678,0,0,0-.565.1,1.689,1.689,0,0,1,1.114,1.4,2.287,2.287,0,0,1,.952-.208c.048,0,.094,0,.141.007A1.688,1.688,0,0,0,213.514,50.39Z" transform="translate(-212.949 -50.39)" fill="#81d4fa"/>
            <path id="Path_6377" data-name="Path 6377" d="M224.768,55.924a2.262,2.262,0,0,0-.562.073,2.3,2.3,0,0,1,1.729,2.222,2.261,2.261,0,0,1-.061.521H227a2.261,2.261,0,0,0,.061-.521A2.3,2.3,0,0,0,224.768,55.924Z" transform="translate(-221.573 -54.63)" fill="#81d4fa"/>
            <path id="Path_6378" data-name="Path 6378" d="M222.422,56.156a2.343,2.343,0,0,1,.389-.135,2.3,2.3,0,0,0-.426-.066A1.721,1.721,0,0,1,222.422,56.156Z" transform="translate(-220.179 -54.653)" fill="#caeaff"/>
          </g>
        </g>
        <g id="Group_4156" data-name="Group 4156" transform="translate(0)">
          <path id="Path_6379" data-name="Path 6379" d="M130.751,46.48A2.7,2.7,0,0,0,128.1,43.5a2.724,2.724,0,0,0-1.7-1.146,2.706,2.706,0,0,0-5.277-.525,2.695,2.695,0,0,0-3.328,1.857,2.7,2.7,0,0,0-4.063,2.794Z" transform="translate(-113.687 -39.921)" fill="#caeaff"/>
          <g id="Group_4155" data-name="Group 4155" transform="translate(2.032)">
            <path id="Path_6380" data-name="Path 6380" d="M139.518,47.975c0-.011.008-.021.011-.031l-.073.016Z" transform="translate(-135.461 -46.068)" fill="#caeaff"/>
            <path id="Path_6381" data-name="Path 6381" d="M158.707,43.5a2.724,2.724,0,0,0-1.7-1.146,2.7,2.7,0,0,0-3.37-2.347,2.705,2.705,0,0,1,2.021,2.347,2.724,2.724,0,0,1,1.7,1.146,2.7,2.7,0,0,1,2.667,2.7c0,.094,0,.186-.014.277h1.348a2.7,2.7,0,0,0-2.652-2.981Z" transform="translate(-146.327 -39.921)" fill="#81d4fa"/>
            <path id="Path_6382" data-name="Path 6382" d="M122.376,54.415a2.71,2.71,0,0,1,.729.308,2.675,2.675,0,0,1,.145-.388c-.066,0-.133-.008-.2-.008A2.7,2.7,0,0,0,122.376,54.415Z" transform="translate(-122.376 -50.958)" fill="#caeaff"/>
          </g>
        </g>
        <g id="Group_4158" data-name="Group 4158" transform="translate(6.962 1.217)">
          <path id="Path_6383" data-name="Path 6383" d="M160.917,52.409a1.647,1.647,0,0,0,.025-.276h0a1.627,1.627,0,0,0-1.627-1.627h-1.079a2.412,2.412,0,0,0-2.1-2.777,3.54,3.54,0,0,0-6.862.126,2.428,2.428,0,0,0-3.259,2.287,2.457,2.457,0,0,0,.03.364h-.963a1.627,1.627,0,0,0-1.627,1.627h0a1.645,1.645,0,0,0,.025.276Z" transform="translate(-143.455 -45.123)" fill="#fff"/>
          <g id="Group_4157" data-name="Group 4157" transform="translate(8.833)">
            <path id="Path_6384" data-name="Path 6384" d="M185.068,47.73a3.512,3.512,0,0,0-3.848-2.577A3.541,3.541,0,0,1,184.2,47.73a2.412,2.412,0,0,1,2.1,2.777h.866a2.412,2.412,0,0,0-2.1-2.777Z" transform="translate(-181.22 -45.123)" fill="#81d4fa"/>
            <path id="Path_6385" data-name="Path 6385" d="M209.191,69.768h0a1.622,1.622,0,0,1-.025.276h.866a1.645,1.645,0,0,0,.025-.276h0a1.627,1.627,0,0,0-1.627-1.627h-.866A1.627,1.627,0,0,1,209.191,69.768Z" transform="translate(-201.403 -62.757)" fill="#81d4fa"/>
          </g>
        </g>
      </g>
      <rect id="Rectangle_807" data-name="Rectangle 807" width="57.507" height="37.724" rx="8.297" transform="translate(37.633 34.325)" fill="#303637"/>
      <path id="Path_6386" data-name="Path 6386" d="M186.241,223.935H135.492a1.8,1.8,0,0,1-1.837-1.75V191.67a1.8,1.8,0,0,1,1.837-1.75h50.749a1.8,1.8,0,0,1,1.836,1.75v30.515A1.8,1.8,0,0,1,186.241,223.935Z" transform="translate(-94.48 -153.74)" fill="#55b6fa"/>
      <path id="Path_6387" data-name="Path 6387" d="M234.011,343.285V354.77h7.479V343.285Zm3.74,8.6a2.436,2.436,0,1,1,2.436-2.436A2.436,2.436,0,0,1,237.751,351.885Z" transform="translate(-171.364 -271.236)" fill="#303637"/>
      <rect id="Rectangle_808" data-name="Rectangle 808" width="22.959" height="2.261" transform="translate(54.907 83.534)" fill="#303637"/>
      <path id="Path_6388" data-name="Path 6388" d="M284.076,127.506h6.549V86.253H251.694" transform="translate(-184.911 -74.319)" fill="none" stroke="#fff" stroke-miterlimit="10" stroke-width="1" stroke-dasharray="4.131"/>
      <circle id="Ellipse_42" data-name="Ellipse 42" cx="1.169" cy="1.169" r="1.169" transform="translate(97.811 52.057)" fill="#fff"/>
      <circle id="Ellipse_43" data-name="Ellipse 43" cx="1.169" cy="1.169" r="1.169" transform="translate(64.444 10.764)" fill="#fff"/>
      <path id="Path_6389" data-name="Path 6389" d="M183.832,231.354c.938-.375,2.119-.628,2.869.049a2.68,2.68,0,0,1,.69,1.4,25.047,25.047,0,0,1,.5,3.118,19.113,19.113,0,0,1,.135,4.626,6.866,6.866,0,0,1-1.911,4.129,1.966,1.966,0,0,1-.938.556,2.413,2.413,0,0,1-.8-.022l-2.7-.378a3.6,3.6,0,0,1-.9-.206,2.961,2.961,0,0,1-1.041-.831,8.4,8.4,0,0,1-1.557-7.95C178.926,233.464,181.666,232.22,183.832,231.354Z" transform="translate(-128.29 -185.197)" fill="#ffa97c"/>
      <path id="Path_6390" data-name="Path 6390" d="M192.353,247.084l-1.131.489,1.131-.162v-.482" transform="translate(-138.583 -197.416)" fill="#d66634" opacity="0.3"/>
      <g id="Group_4161" data-name="Group 4161" transform="translate(53.77 26.216)">
        <g id="Group_4160" data-name="Group 4160">
          <rect id="Rectangle_809" data-name="Rectangle 809" width="26.966" height="35.162" fill="#f9fafe"/>
          <rect id="Rectangle_810" data-name="Rectangle 810" width="26.966" height="2.246" fill="#303637"/>
        </g>
        <circle id="Ellipse_44" data-name="Ellipse 44" cx="0.409" cy="0.409" r="0.409" transform="translate(24.746 0.552)" fill="#f06359"/>
        <circle id="Ellipse_45" data-name="Ellipse 45" cx="0.409" cy="0.409" r="0.409" transform="translate(23.167 0.552)" fill="#e6e7e8"/>
        <circle id="Ellipse_46" data-name="Ellipse 46" cx="0.409" cy="0.409" r="0.409" transform="translate(21.588 0.552)" fill="#e6e7e8"/>
      </g>
      <line id="Line_3" data-name="Line 3" x1="30.466" transform="translate(1.239 90.251)" fill="none" stroke="#f1f1f2" stroke-linecap="round" stroke-linejoin="round" stroke-width="5"/>
      <line id="Line_4" data-name="Line 4" x1="18.772" transform="translate(61.628 20.972)" fill="none" stroke="#f1f1f2" stroke-linecap="round" stroke-linejoin="round" stroke-width="5"/>
      <line id="Line_5" data-name="Line 5" x1="18.772" transform="translate(104.485 94.897)" fill="none" stroke="#f1f1f2" stroke-linecap="round" stroke-linejoin="round" stroke-width="5"/>
      <path id="Path_6391" data-name="Path 6391" d="M121.152,385.619a.9.9,0,1,1-.9-.9A.9.9,0,0,1,121.152,385.619Z" transform="translate(-83.527 -302.981)" fill="none" stroke="#f1f1f2" stroke-linecap="round" stroke-linejoin="round" stroke-width="2.5"/>
      <circle id="Ellipse_47" data-name="Ellipse 47" cx="1.098" cy="1.098" r="1.098" transform="translate(80.268 15.685)" fill="none" stroke="#f1f1f2" stroke-linecap="round" stroke-linejoin="round" stroke-width="3"/>
      <path id="Path_6392" data-name="Path 6392" d="M413.258,410.825a1.1,1.1,0,1,1-1.1-1.1A1.1,1.1,0,0,1,413.258,410.825Z" transform="translate(-307.007 -322.138)" fill="none" stroke="#f1f1f2" stroke-linecap="round" stroke-linejoin="round" stroke-width="3"/>
      <circle id="Ellipse_48" data-name="Ellipse 48" cx="1.098" cy="1.098" r="1.098" transform="translate(90.346)" fill="none" stroke="#f1f1f2" stroke-linecap="round" stroke-linejoin="round" stroke-width="3"/>
      <g id="Group_4180" data-name="Group 4180" transform="translate(55.736 30.992)">
        <circle id="Ellipse_49" data-name="Ellipse 49" cx="4.489" cy="4.489" r="4.489" fill="#929497"/>
        <g id="Group_4177" data-name="Group 4177" transform="translate(0.078 0.137)">
          <g id="Group_4176" data-name="Group 4176" clip-path="url(#clip-path-2)">
            <g id="Group_4175" data-name="Group 4175" transform="translate(2.155 0.801)">
              <g id="Group_4164" data-name="Group 4164" transform="translate(0 5.306)">
                <path id="Path_6393" data-name="Path 6393" d="M216.923,196.249l.4.09a1.625,1.625,0,0,1,1.273,1.587v.584a.175.175,0,0,1-.175.175h-4.188a.175.175,0,0,1-.175-.175v-.584a1.625,1.625,0,0,1,1.273-1.587l.343-.076.015,0,.4-.055.023,0h.506l.027,0,.261.041Z" transform="translate(-214.049 -195.791)" fill="#f7d9bc"/>
                <g id="Group_4162" data-name="Group 4162" transform="translate(0.549 0.429)">
                  <path id="Path_6394" data-name="Path 6394" d="M219.38,196.458l-.7-.156-.175-.028-.006.436h0v-.033c0,.011,0,.022,0,.033v0h0a.41.41,0,0,1-.82-.034h0v-.392l-.234.032-.643.143a1.25,1.25,0,0,0-.442.194v2.087h3.48v-2.075A1.247,1.247,0,0,0,219.38,196.458Z" transform="translate(-216.359 -196.274)" fill="#00adee"/>
                </g>
                <path id="Path_6395" data-name="Path 6395" d="M214.561,199.148h-.538a1.33,1.33,0,0,1,.538-1.261Z" transform="translate(-214.012 -197.081)" fill="#00adee"/>
                <path id="Path_6396" data-name="Path 6396" d="M231.27,199.148h.538a1.33,1.33,0,0,0-.538-1.261Z" transform="translate(-227.234 -197.081)" fill="#00adee"/>
                <g id="Group_4163" data-name="Group 4163" transform="translate(1.868)">
                  <path id="Path_6397" data-name="Path 6397" d="M222.824,194.858l-.006.448,0-.035a.411.411,0,0,1-.821,0h0v-.65l.1-.093h.068l.4-.087.118.024.136.049" transform="translate(-221.999 -194.44)" fill="#f7d9bc"/>
                  <path id="Path_6398" data-name="Path 6398" d="M222.57,194.44l-.4.087H222.1l-.1.093v.314a.764.764,0,0,0,.824.012v-.433l-.136-.048Z" transform="translate(-221.999 -194.44)" fill="#f6a49b"/>
                </g>
              </g>
              <path id="Path_6399" data-name="Path 6399" d="M218.4,179.11h0a1.64,1.64,0,0,1-1.64-1.64v-1.825a1.64,1.64,0,0,1,1.64-1.64h0a1.64,1.64,0,0,1,1.64,1.64v1.825A1.64,1.64,0,0,1,218.4,179.11Z" transform="translate(-216.12 -173.478)" fill="#f7d9bc"/>
              <path id="Path_6400" data-name="Path 6400" d="M226.557,183.866a.172.172,0,1,1-.172-.172A.172.172,0,0,1,226.557,183.866Z" transform="translate(-223.359 -180.901)" fill="#292b2b"/>
              <path id="Path_6401" data-name="Path 6401" d="M220.4,183.866a.172.172,0,1,1-.172-.172A.172.172,0,0,1,220.4,183.866Z" transform="translate(-218.646 -180.901)" fill="#292b2b"/>
              <g id="Group_4166" data-name="Group 4166" transform="translate(1.703 4.381)">
                <g id="Group_4165" data-name="Group 4165">
                  <path id="Path_6402" data-name="Path 6402" d="M221.9,190.724a1.087,1.087,0,0,1-.59-.172.036.036,0,0,1-.011-.052.039.039,0,0,1,.053-.008,1.028,1.028,0,0,0,1.1,0,.039.039,0,0,1,.053.008.036.036,0,0,1-.011.052A1.084,1.084,0,0,1,221.9,190.724Z" transform="translate(-221.294 -190.484)" fill="#f7a584"/>
                </g>
              </g>
              <g id="Group_4168" data-name="Group 4168" transform="translate(2.092 5.109)">
                <g id="Group_4167" data-name="Group 4167">
                  <path id="Path_6403" data-name="Path 6403" d="M222.991,193.7a.037.037,0,0,1-.016-.069.424.424,0,0,1,.341,0,.036.036,0,1,1-.029.066.337.337,0,0,0-.136-.027.33.33,0,0,0-.144.031A.039.039,0,0,1,222.991,193.7Z" transform="translate(-222.955 -193.597)" fill="#f7a584"/>
                </g>
              </g>
              <path id="Path_6404" data-name="Path 6404" d="M230.789,184.266h0a.317.317,0,0,1,.317.317v.184a.317.317,0,0,1-.317.317h0" transform="translate(-226.865 -181.339)" fill="#f6a49b"/>
              <path id="Path_6405" data-name="Path 6405" d="M215.725,184.266h0a.317.317,0,0,0-.317.317v.184a.317.317,0,0,0,.317.317h0" transform="translate(-215.081 -181.339)" fill="#f6a49b"/>
              <path id="Path_6406" data-name="Path 6406" d="M223.254,184.64l-.128.525a.183.183,0,0,0,.178.226h0a.183.183,0,0,0,.178-.226l-.128-.525A.052.052,0,0,0,223.254,184.64Z" transform="translate(-220.99 -181.595)" fill="#f6a49b"/>
              <g id="Group_4171" data-name="Group 4171" transform="translate(1.27 2.275)">
                <g id="Group_4170" data-name="Group 4170">
                  <g id="Group_4169" data-name="Group 4169">
                    <path id="Path_6407" data-name="Path 6407" d="M220,181.732a.073.073,0,0,1-.046-.016c-.233-.188-.377-.018-.382-.011a.073.073,0,1,1-.113-.092.4.4,0,0,1,.587-.011.073.073,0,0,1-.046.13Z" transform="translate(-219.444 -181.481)" fill="#27282a"/>
                  </g>
                </g>
              </g>
              <g id="Group_4174" data-name="Group 4174" transform="translate(2.698 2.275)">
                <g id="Group_4173" data-name="Group 4173">
                  <g id="Group_4172" data-name="Group 4172">
                    <path id="Path_6408" data-name="Path 6408" d="M225.622,181.732a.073.073,0,0,1-.046-.13.4.4,0,0,1,.586.011.073.073,0,0,1-.112.093c-.016-.018-.157-.172-.383.01A.073.073,0,0,1,225.622,181.732Z" transform="translate(-225.549 -181.481)" fill="#27282a"/>
                  </g>
                </g>
              </g>
              <path id="Path_6409" data-name="Path 6409" d="M227.063,193.827q0,.023,0,.046" transform="translate(-224.01 -188.664)" fill="#f7d9bc"/>
              <rect id="Rectangle_811" data-name="Rectangle 811" width="0.204" height="0.826" transform="translate(4.036 7.373)" fill="#f6a49b"/>
              <rect id="Rectangle_812" data-name="Rectangle 812" width="0.204" height="0.826" transform="translate(0.345 7.373)" fill="#f6a49b"/>
              <path id="Path_6410" data-name="Path 6410" d="M218.41,186.607h0a1.64,1.64,0,0,0,1.64-1.64V183.8l0-.011a2.538,2.538,0,0,1-1.357,2.112.781.781,0,0,1-.566,0,2.538,2.538,0,0,1-1.357-2.112l0,.011v1.166a1.64,1.64,0,0,0,1.64,1.64h0" transform="translate(-216.12 -180.975)" fill="#f7a584" opacity="0.2"/>
              <path id="Path_6411" data-name="Path 6411" d="M219.679,172.609c-.234-.548-.785-1.016-2.033-.805a.9.9,0,0,0-.518.38c-.367.045-.852.413-.6,2.311,0,0,.275-2.136.99-1.351h0a2.981,2.981,0,0,0,2.283.775c.02.313.009.574.009.574C220.257,173.06,219.892,172.7,219.679,172.609Z" transform="translate(-215.887 -171.752)" fill="#27282a"/>
              <path id="Path_6412" data-name="Path 6412" d="M220.793,176.331a1.274,1.274,0,0,1-.516-.443.56.56,0,0,0-.541-.238l.012.058a.49.49,0,0,1,.481.214,1.33,1.33,0,0,0,.541.463,4.689,4.689,0,0,0,1.731.347c0-.02.006-.04.009-.059A4.64,4.64,0,0,1,220.793,176.331Z" transform="translate(-218.396 -174.734)" fill="#f3f3f3" opacity="0.1"/>
              <path id="Path_6413" data-name="Path 6413" d="M222.5,174.963c-1.437-.028-1.749-.347-1.816-.491l-.007-.013a.835.835,0,0,0-.97-.332l.023.055a.773.773,0,0,1,.9.308l0,.007c.152.321.815.5,1.876.525C222.509,175,222.507,174.982,222.5,174.963Z" transform="translate(-218.379 -173.537)" fill="#f3f3f3" opacity="0.1"/>
            </g>
          </g>
        </g>
        <g id="Group_4178" data-name="Group 4178" transform="translate(4.819 3.514)">
          <path id="Path_6414" data-name="Path 6414" d="M225.9,183.182a.418.418,0,1,1-.418-.418A.418.418,0,0,1,225.9,183.182Z" transform="translate(-225.069 -182.764)" fill="none" stroke="#27282a" stroke-miterlimit="10" stroke-width="0.397"/>
          <line id="Line_6" data-name="Line 6" x2="0.513" transform="translate(0.816 0.292)" fill="none" stroke="#27282a" stroke-miterlimit="10" stroke-width="0.397"/>
        </g>
        <g id="Group_4179" data-name="Group 4179" transform="translate(2.877 3.514)">
          <path id="Path_6415" data-name="Path 6415" d="M218.846,183.182a.418.418,0,1,0,.418-.418A.418.418,0,0,0,218.846,183.182Z" transform="translate(-218.359 -182.764)" fill="none" stroke="#27282a" stroke-miterlimit="10" stroke-width="0.397"/>
          <line id="Line_7" data-name="Line 7" x1="0.507" transform="translate(0 0.292)" fill="none" stroke="#27282a" stroke-miterlimit="10" stroke-width="0.397"/>
        </g>
        <line id="Line_8" data-name="Line 8" x2="0.66" transform="translate(4.18 3.896)" fill="none" stroke="#27282a" stroke-miterlimit="10" stroke-width="0.397"/>
      </g>
      <rect id="Rectangle_813" data-name="Rectangle 813" width="11.324" height="1.371" transform="translate(66.783 32.56)" fill="#d0d2d3"/>
      <rect id="Rectangle_814" data-name="Rectangle 814" width="11.324" height="1.371" transform="translate(66.783 35.494)" fill="#d0d2d3"/>
      <rect id="Rectangle_815" data-name="Rectangle 815" width="11.324" height="1.371" transform="translate(66.783 38.429)" fill="#d0d2d3"/>
      <rect id="Rectangle_816" data-name="Rectangle 816" width="17.133" height="1.371" transform="translate(60.973 42.851)" fill="#d0d2d3"/>
      <rect id="Rectangle_817" data-name="Rectangle 817" width="17.133" height="1.371" transform="translate(60.973 47.274)" fill="#d0d2d3"/>
      <rect id="Rectangle_818" data-name="Rectangle 818" width="17.133" height="1.371" transform="translate(60.973 51.697)" fill="#d0d2d3"/>
      <rect id="Rectangle_819" data-name="Rectangle 819" width="17.133" height="1.371" transform="translate(60.973 56.12)" fill="#d0d2d3"/>
      <g id="Group_4181" data-name="Group 4181" transform="translate(56.636 42.508)">
        <rect id="Rectangle_820" data-name="Rectangle 820" width="1.9" height="1.696" fill="none" stroke="#58595b" stroke-miterlimit="10" stroke-width="1"/>
        <rect id="Rectangle_821" data-name="Rectangle 821" width="1.9" height="1.696" transform="translate(0 4.603)" fill="none" stroke="#58595b" stroke-miterlimit="10" stroke-width="1"/>
        <rect id="Rectangle_822" data-name="Rectangle 822" width="1.9" height="1.696" transform="translate(0 9.206)" fill="none" stroke="#58595b" stroke-miterlimit="10" stroke-width="1"/>
        <rect id="Rectangle_823" data-name="Rectangle 823" width="1.9" height="1.696" transform="translate(0 13.809)" fill="none" stroke="#58595b" stroke-miterlimit="10" stroke-width="1"/>
      </g>
      <g id="Group_4194" data-name="Group 4194" transform="translate(39.175 36.18)">
        <g id="Group_4193" data-name="Group 4193">
          <g id="Group_4192" data-name="Group 4192">
            <g id="Group_4191" data-name="Group 4191" clip-path="url(#clip-path-3)">
              <g id="Group_4185" data-name="Group 4185" transform="translate(-8.487 6.509)">
                <g id="Group_4184" data-name="Group 4184">
                  <path id="Path_6416" data-name="Path 6416" d="M167.414,233.024a1.672,1.672,0,0,1-.567-1.348,1.64,1.64,0,0,1-1.414,1.438l-.033.023a.121.121,0,0,1,.033-.023,3.641,3.641,0,0,0,1.44-2.725,8.492,8.492,0,0,0-1.422-4.757c-.617-.922-1.514-1.944-.741-3.053a3.221,3.221,0,0,1,.788-.675,3.958,3.958,0,0,0,1.426-1.9c.12-.363.4-2.38-.362-2.246a.851.851,0,0,0-.336.174,24.485,24.485,0,0,1-2.531,1.6c-.766.421-1.273.551-1.565,1.413-.952,2.812-1.995,5.489-1.421,8.508.36,1.9-.734,3.917-1.738,5.564a2.921,2.921,0,0,0-.426.876,26.852,26.852,0,0,0,4.829,4.75,15.2,15.2,0,0,1,2.243-2.648c.78-.677.842-1.048,1.743-1.553v-1.662Z" transform="translate(-144.238 -217.749)" fill="#ffbe90"/>
                  <g id="Group_4183" data-name="Group 4183" transform="translate(0 0.254)">
                    <path id="Path_6417" data-name="Path 6417" d="M183,221.165a.121.121,0,0,0,.053.053.123.123,0,0,0,.095-.019,8.529,8.529,0,0,0,.885-.519,1.56,1.56,0,0,0,.352-.294,1.268,1.268,0,0,0,.243-.594,2.374,2.374,0,0,0-.032-.956q-.939.67-1.938,1.25A2.351,2.351,0,0,0,183,221.165Z" transform="translate(-162.707 -218.835)" fill="#f4cdb3"/>
                    <path id="Path_6418" data-name="Path 6418" d="M180.355,226.368c-.15-.116-.2-.6-.22-.78a2.537,2.537,0,0,1-.02-.308l-.034.019-.147.079A1.224,1.224,0,0,0,180.355,226.368Z" transform="translate(-160.622 -223.773)" fill="#ffa97c"/>
                    <path id="Path_6419" data-name="Path 6419" d="M178.583,227.085c-.15-.116-.2-.6-.22-.78,0-.03-.007-.06-.01-.089l-.181.1A1.172,1.172,0,0,0,178.583,227.085Z" transform="translate(-159.274 -224.489)" fill="#ffa97c"/>
                    <path id="Path_6420" data-name="Path 6420" d="M162.264,254.338c-.036-1.783-1.023-3.374-1.353-5.1q-.024-.124-.048-.249a10.623,10.623,0,0,0-.152,4.394c.36,1.9-.734,3.917-1.738,5.564a2.921,2.921,0,0,0-.426.876q.353.416.713.832c.268-.323.513-.669.752-1.01C161.133,258.043,162.3,256.294,162.264,254.338Z" transform="translate(-144.238 -241.936)" fill="#ffa97c" opacity="0.4"/>
                    <path id="Path_6421" data-name="Path 6421" d="M179.589,237.741a5.616,5.616,0,0,0,1.189-.245,1.589,1.589,0,0,1,.171-.178,2.333,2.333,0,0,0-.228.086,3.949,3.949,0,0,1-1.278.353Z" transform="translate(-160.247 -232.995)" fill="#ffa97c"/>
                    <path id="Path_6422" data-name="Path 6422" d="M170.4,300.812q.2-.271.4-.539a4.815,4.815,0,0,0-.386-.411,23.825,23.825,0,0,1-3.027-3.123l2.322,3.16C169.93,300.207,170.157,300.514,170.4,300.812Z" transform="translate(-151.008 -278.519)" fill="#ffa97c"/>
                    <path id="Path_6423" data-name="Path 6423" d="M152.132,286.319a21.874,21.874,0,0,0,5.943,7.265c.06.169-.684,1.267-.684,1.267s-4.921-3.048-6.612-7.484C150.948,286.9,152.132,286.319,152.132,286.319Z" transform="translate(-138.287 -270.536)" fill="#f9fafe"/>
                    <g id="Group_4182" data-name="Group 4182" transform="translate(0 15.783)">
                      <path id="Path_6424" data-name="Path 6424" d="M109.522,286.319s.761,4.7,8.8,8.892c-.332-.225-8.457,10.935-8.457,10.935l-12.492-9.914Z" transform="translate(-97.369 -286.319)" fill="#4d4d4d"/>
                      <path id="Path_6425" data-name="Path 6425" d="M130.632,314.151h-.653l-11.573,7.309,7.571,6.009s8.125-11.16,8.457-10.935a26.682,26.682,0,0,1-3.8-2.383Z" transform="translate(-113.486 -307.642)" fill="#303637" opacity="0.1"/>
                    </g>
                  </g>
                </g>
                <path id="Path_6426" data-name="Path 6426" d="M171.292,323.686a.886.886,0,1,1-.886-.885A.886.886,0,0,1,171.292,323.686Z" transform="translate(-152.646 -298.231)" fill="#ffce55"/>
              </g>
              <g id="Group_4190" data-name="Group 4190" transform="translate(27.413 3.877)">
                <g id="Group_4189" data-name="Group 4189">
                  <rect id="Rectangle_824" data-name="Rectangle 824" width="20.325" height="28.888" fill="none"/>
                  <g id="Group_4188" data-name="Group 4188" transform="translate(1.536 3.741)">
                    <g id="Group_4186" data-name="Group 4186" transform="translate(2.514 0.151)">
                      <path id="Path_6427" data-name="Path 6427" d="M299.056,229.764a4.483,4.483,0,0,1,.525.979q.422.985.791,1.991a9.692,9.692,0,0,1,.595,2.2,10.987,10.987,0,0,1,.038,1.482q-.063,3.248-.127,6.5a4.479,4.479,0,0,1-.689-1.33,53.549,53.549,0,0,1-2.157-7.2,19.531,19.531,0,0,0-.619-2.373c-.187-.517-.425-1.014-.662-1.51-.367-.766-.718-1.542-1.106-2.3.532-.2,1.128.234,1.626.419A3.8,3.8,0,0,1,299.056,229.764Z" transform="translate(-289.222 -226.979)" fill="#fba478"/>
                      <path id="Path_6428" data-name="Path 6428" d="M269.492,232.852a1.3,1.3,0,0,0,.422.236c.348.081.673-.237.994-.316a3.267,3.267,0,0,1,.632-.072l1.495-.072a.4.4,0,0,1,.2.024.424.424,0,0,1,.147.153,4.5,4.5,0,0,0,.667.769.671.671,0,0,1,.211.267.727.727,0,0,1-.133.522,2.352,2.352,0,0,0-.226,1.384.509.509,0,0,1,0,.227.515.515,0,0,1-.188.216,2.2,2.2,0,0,0-.788,1.741,4.585,4.585,0,0,0,2.038-.357,2.443,2.443,0,0,0,.95-.655,2.227,2.227,0,0,0,.455-1.219,6.632,6.632,0,0,0-.054-1.318,3.53,3.53,0,0,0-.272-1.193,2.337,2.337,0,0,0-.808-.876,4.324,4.324,0,0,0-1.52-.619,4.78,4.78,0,0,0-2.88.066l-1.421.613a.221.221,0,0,0-.111.079C269.228,232.576,269.34,232.728,269.492,232.852Z" transform="translate(-269.021 -229.548)" fill="#e67944"/>
                      <path id="Path_6429" data-name="Path 6429" d="M273.7,231.424a2.559,2.559,0,0,1,.014-.7,2.187,2.187,0,0,1,.474-.7.264.264,0,0,0,.07-.149.279.279,0,0,0-.046-.136c-.475-.87-.465-1.737-1.544-2.056a12.159,12.159,0,0,0-3.579-.092c-.373.008-.812-.052-.9-.513a.152.152,0,0,1,0-.087.158.158,0,0,1,.066-.065,2.276,2.276,0,0,1,.624-.2c.581-.157,1.107-.4,1.7-.511l2.774-.532a.7.7,0,0,1,.753.194l1.521,1.249a2.725,2.725,0,0,1,.9,1.051,2.82,2.82,0,0,1,.09,1.177,39.613,39.613,0,0,0-.017,4.478,1.852,1.852,0,0,1-.261,1.315c-.569.655-2.208.1-2.826-.257a1.348,1.348,0,0,1-.516-2.116,2.657,2.657,0,0,0,.685-1.177A1.269,1.269,0,0,0,273.7,231.424Z" transform="translate(-268.181 -225.055)" fill="#fba478"/>
                      <path id="Path_6430" data-name="Path 6430" d="M280.264,235.977c-.166-1.723-.255-3.374-.581-5.074-.006-.029.047.4.053.373a2.537,2.537,0,0,0-.325-1.646c-.264-.505-.616-.96-.9-1.457-.661-1.172-.905-2.547-1.591-3.705a1.791,1.791,0,0,0-.652-.706,2.126,2.126,0,0,0-.743-.187l-2.563-.321a9.486,9.486,0,0,0-1.685-.11,8.152,8.152,0,0,1-2.539.072c-.177-.045-.348.136-.357.319a.762.762,0,0,0,.21.492,2.7,2.7,0,0,0,1.674.961c.475.073.964.016,1.438.093a4.953,4.953,0,0,1,1.211.416q1.048.469,2.078.976c.222.11.471.256.508.5a.889.889,0,0,1-.252.6,3.607,3.607,0,0,0-.529,3.013c.15.541-.506.729-.962.806-.5.085-.8-.236-1.062-.661a10.883,10.883,0,0,1-.92-2.5,1.206,1.206,0,0,0-.059-.173,7.381,7.381,0,0,0-.6-1.259,5.285,5.285,0,0,0-.437-.634,1.229,1.229,0,0,0-1.372-.38,1.273,1.273,0,0,0-.67.646,2.848,2.848,0,0,0-.018,1.874q.1.571.191,1.143a8.418,8.418,0,0,0,.659,2.309,20.718,20.718,0,0,1,1.2,3.512,14.2,14.2,0,0,0,1.883,3.6c1.48,2.3,3.247,4.434,4.393,6.935a21.863,21.863,0,0,1,1.37,4.223c.139.6.354,3.633.933,3.807.264.08.917-.477,1.172-.574a16.4,16.4,0,0,1,2.212-.539c.457-.1,4.131-1.1,4.331-.8C283.868,247.3,280.806,241.591,280.264,235.977Z" transform="translate(-268.337 -223.136)" fill="#ffbe90"/>
                      <path id="Path_6431" data-name="Path 6431" d="M269.459,237.294s-.114-1.7,1.721-.856a5.416,5.416,0,0,1,.433,1.582c-.047-.094-.749.619-1.712.693C269.874,238.75,269.459,237.294,269.459,237.294Z" transform="translate(-269.159 -233.148)" fill="#f4cdb3"/>
                      <path id="Path_6432" data-name="Path 6432" d="M270.69,223.973a2.726,2.726,0,0,0,1.244.092l-.1-.445a4.19,4.19,0,0,1-1.316-.011.674.674,0,0,0,.1.325A.173.173,0,0,0,270.69,223.973Z" transform="translate(-269.971 -223.498)" fill="#f4cdb3"/>
                      <path id="Path_6433" data-name="Path 6433" d="M277.911,224.075a3.929,3.929,0,0,1-.019-.672l-.1.013A3.568,3.568,0,0,0,277.911,224.075Z" transform="translate(-275.541 -223.341)" fill="#ffac7a"/>
                      <path id="Path_6434" data-name="Path 6434" d="M279.545,223.707a1.847,1.847,0,0,1,.026-.474l-.087.008c0,.019,0,.037,0,.056A2.9,2.9,0,0,0,279.545,223.707Z" transform="translate(-276.84 -223.21)" fill="#ffac7a"/>
                      <path id="Path_6435" data-name="Path 6435" d="M280.81,229.622c.088-.06.174-.121.257-.179a2,2,0,0,0,.4-.34,2.67,2.67,0,0,1-.886.506C280.658,229.612,280.734,229.616,280.81,229.622Z" transform="translate(-277.682 -227.707)" fill="#ffac7a"/>
                      <path id="Path_6436" data-name="Path 6436" d="M291.523,234.4a6.508,6.508,0,0,0,.619-.233,2.243,2.243,0,0,1-.77.164Z" transform="translate(-285.947 -231.589)" fill="#ffac7a"/>
                      <path id="Path_6437" data-name="Path 6437" d="M299.991,226.165a2.915,2.915,0,0,1,.029-.981c-.053-.012-.107-.021-.161-.03A2.733,2.733,0,0,0,299.991,226.165Z" transform="translate(-292.435 -224.682)" fill="#ffac7a"/>
                      <path id="Path_6438" data-name="Path 6438" d="M287.8,256.967a8.128,8.128,0,0,1,.129,2.064,10.507,10.507,0,0,0,.053-1.886A1.3,1.3,0,0,1,287.8,256.967Z" transform="translate(-283.212 -249.055)" fill="#fba478"/>
                      <path id="Path_6439" data-name="Path 6439" d="M299.942,239a7.294,7.294,0,0,1-1.594-.44.448.448,0,0,1,.113.23.433.433,0,0,1-.006.153A3.358,3.358,0,0,0,299.942,239Z" transform="translate(-291.292 -234.95)" fill="#ffac7a"/>
                      <path id="Path_6440" data-name="Path 6440" d="M274.142,245.228a4.7,4.7,0,0,1-1.895.781,3.467,3.467,0,0,1,.781-.374A3.724,3.724,0,0,0,274.142,245.228Z" transform="translate(-271.296 -240.061)" fill="#ffac7a"/>
                      <path id="Path_6441" data-name="Path 6441" d="M272.924,248.113a1.92,1.92,0,0,0,.953-.012,1.506,1.506,0,0,0,.787-.509c-.233.133-.5.195-.744.306A3.035,3.035,0,0,1,272.924,248.113Z" transform="translate(-271.815 -241.872)" fill="#ffac7a"/>
                    </g>
                    <path id="Path_6442" data-name="Path 6442" d="M293.017,295.85v1.144s6.886-1.611,7.9-3.181c-.113.065-.676-.893-.676-.893S299.547,294.552,293.017,295.85Z" transform="translate(-284.694 -276.448)" fill="#f9fafe"/>
                    <path id="Path_6443" data-name="Path 6443" d="M297.25,291.72s-3.162,3.381-10.713,4.649c-.025.085,3.559,12.852,3.559,12.852s13.833-4.989,13.749-5.116S297.25,291.72,297.25,291.72Z" transform="translate(-279.73 -275.528)" fill="#4d4d4d"/>
                    <path id="Path_6444" data-name="Path 6444" d="M297.2,316.471c-1.371-3.705-4.469-12.04-4.552-11.916a19.445,19.445,0,0,1-4.071,1.231c-.641.154-1.32.294-2.039.415-.025.085,3.559,12.852,3.559,12.852S293.689,317.758,297.2,316.471Z" transform="translate(-279.73 -285.361)" fill="#303637" opacity="0.1"/>
                    <g id="Group_4187" data-name="Group 4187">
                      <path id="Path_6445" data-name="Path 6445" d="M257.432,222.49a82.788,82.788,0,0,1,15.406,8.9c.049.128.291.77-.823,1.07C271.966,232.5,259.806,224.972,257.432,222.49Z" transform="translate(-257.432 -222.49)" fill="#303637"/>
                      <path id="Path_6446" data-name="Path 6446" d="M257.432,222.49s.683.661,1.31,1.146c.007.006.468.041.385-.38Z" transform="translate(-257.432 -222.49)" fill="#999"/>
                      <path id="Path_6447" data-name="Path 6447" d="M257.432,222.49l.565.521s.224-.005.2-.187C258.186,222.831,257.432,222.49,257.432,222.49Z" transform="translate(-257.432 -222.49)" fill="#131313"/>
                      <path id="Path_6448" data-name="Path 6448" d="M303.28,248.81a2.545,2.545,0,0,1-.929,1.291l.122.078a2.672,2.672,0,0,0,.936-1.285Z" transform="translate(-291.845 -242.654)" fill="#131313"/>
                      <path id="Path_6449" data-name="Path 6449" d="M267.276,227.807s6.419,3.252,8.623,5.007c0,.064-.218.3-.218.3Z" transform="translate(-264.974 -226.563)" fill="#f1f1f1" opacity="0.2"/>
                      <path id="Path_6450" data-name="Path 6450" d="M306.874,251.595,310.281,254a.36.36,0,0,0,.236-.449c.018-.016-3.561-2.279-3.561-2.279Z" transform="translate(-295.31 -244.542)" fill="#f1f1f1" opacity="0.2"/>
                    </g>
                  </g>
                </g>
                <path id="Path_6451" data-name="Path 6451" d="M297.417,316.509a.886.886,0,1,1-.886-.886A.886.886,0,0,1,297.417,316.509Z" transform="translate(-285.172 -290.1)" fill="#ffce55"/>
              </g>
            </g>
          </g>
          <path id="Path_6453" data-name="Path 6453" d="M326.453,291.72a3.671,3.671,0,0,0-1.8.568c-.031-.05.5.606.5.606Z" transform="translate(-279.984 -267.911)" fill="#303637"/>
          <path id="Path_6454" data-name="Path 6454" d="M286.538,308.235a1.855,1.855,0,0,1,1.515-1.023v.729Z" transform="translate(-250.781 -279.777)" fill="#303637"/>
        </g>
        <path id="Path_6455" data-name="Path 6455" d="M149.333,286.314a.9.9,0,0,1,.854.5,1.692,1.692,0,0,0-.516.545A5.273,5.273,0,0,1,149.333,286.314Z" transform="translate(-145.666 -263.768)" fill="#303637"/>
        <path id="Path_6456" data-name="Path 6456" d="M180.647,318.32s1.257.792,1.219,1.408c0,0-1.254-.686-1.548-.865A5.376,5.376,0,0,0,180.647,318.32Z" transform="translate(-169.404 -288.289)" fill="#303637"/>
      </g>
      <path id="Path_6457" data-name="Path 6457" d="M207.026,211.807l1.251,1.609,2.989-2.194" transform="translate(-150.69 -170.06)" fill="none" stroke="#34bf6e" stroke-miterlimit="10" stroke-width="3"/>
      <path id="Path_6458" data-name="Path 6458" d="M207.026,231.565l1.251,1.609,2.989-2.194" transform="translate(-150.69 -185.197)" fill="none" stroke="#34bf6e" stroke-miterlimit="10" stroke-width="3"/>
      <path id="Path_6459" data-name="Path 6459" d="M207.026,251.324l1.251,1.609,2.989-2.194" transform="translate(-150.69 -200.335)" fill="none" stroke="#34bf6e" stroke-miterlimit="10" stroke-width="3"/>
      <path id="Path_6460" data-name="Path 6460" d="M207.026,271.082l1.251,1.609,2.989-2.194" transform="translate(-150.69 -215.472)" fill="none" stroke="#34bf6e" stroke-miterlimit="10" stroke-width="3"/>
      <g id="Group_4195" data-name="Group 4195" transform="translate(40.621 11.727)">
        <path id="Path_6461" data-name="Path 6461" d="M154.857,95.248a2.456,2.456,0,0,0-.552-.41,11.391,11.391,0,0,0-1.168-.616,16.467,16.467,0,0,0-1.578-.631,9.493,9.493,0,0,0-1.752-.426v4.292l1.01.252a26.954,26.954,0,0,1,2.9.963,7.8,7.8,0,0,1,2.193,1.294,5.247,5.247,0,0,1,1.389,1.878,6.527,6.527,0,0,1,.489,2.651,6.788,6.788,0,0,1-.631,3.061,5.831,5.831,0,0,1-1.688,2.067,7.53,7.53,0,0,1-2.43,1.215,11.8,11.8,0,0,1-2.888.474v3.661h-2.178v-3.693a19.224,19.224,0,0,1-4.308-.884,15.562,15.562,0,0,1-3.835-1.831l2.272-4.513a3.481,3.481,0,0,0,.678.521,11,11,0,0,0,1.4.757,19.231,19.231,0,0,0,1.925.758,12.027,12.027,0,0,0,2.209.521v-4.2l-1.515-.442a18.638,18.638,0,0,1-2.683-1.026,7.07,7.07,0,0,1-1.878-1.278,4.633,4.633,0,0,1-1.1-1.673,6.152,6.152,0,0,1-.363-2.209,7.122,7.122,0,0,1,.568-2.919,6.8,6.8,0,0,1,1.531-2.194,7.025,7.025,0,0,1,2.272-1.436,10.58,10.58,0,0,1,2.825-.678V85.369h2.178v3.188a13.56,13.56,0,0,1,3.85.915,25.813,25.813,0,0,1,3.125,1.484Zm-8.743-.284a1.532,1.532,0,0,0,.552,1.247,4.934,4.934,0,0,0,1.657.805V93.133Q146.114,93.322,146.115,94.964ZM152.238,105a1.466,1.466,0,0,0-.663-1.278,7.326,7.326,0,0,0-1.767-.837v3.787Q152.238,106.578,152.238,105Z" transform="translate(-139.834 -85.369)" fill="none" stroke="#ffce55" stroke-miterlimit="10" stroke-width="1"/>
      </g>
      <path id="Path_6462" data-name="Path 6462" d="M391.569,327.287l11.314,4.145-3.026,3.42Z" transform="translate(-292.072 -258.979)" fill="#ffce55"/>
      <path id="Path_6463" data-name="Path 6463" d="M374.485,337.993l2.729,5.306-2.729.381Z" transform="translate(-278.983 -267.181)" fill="#ffce55"/>
      <path id="Path_6464" data-name="Path 6464" d="M88.174,340.734l-6.95,6.242-1.916-2.414Z" transform="translate(-52.843 -269.281)" fill="#f9fafe"/>
      <g id="Group_4196" data-name="Group 4196" transform="translate(27.711 68.737)">
        <path id="Path_6465" data-name="Path 6465" d="M91.685,330.4l-6.72,1.636-.327-2.915Z" transform="translate(-84.639 -329.122)" fill="#f9fafe"/>
      </g>
      <g id="Group_4197" data-name="Group 4197" transform="translate(88.651 57.259)">
        <path id="Path_6466" data-name="Path 6466" d="M366.27,289.04H349.689a4.5,4.5,0,0,1-4.5-4.5h0a4.5,4.5,0,0,1,4.5-4.5H366.27a4.5,4.5,0,0,1,4.5,4.5h0A4.5,4.5,0,0,1,366.27,289.04Z" transform="translate(-345.194 -280.049)" fill="#ffce55"/>
        <text id="REGISTER" transform="translate(4.947 4.266)" fill="#f9fafe" font-size="1" font-family="Raleway-ExtraBold, Raleway" font-weight="800" letter-spacing="0.1em"><tspan x="0" y="0">REGISTER</tspan></text>
      </g>
      <line id="Line_9" data-name="Line 9" x2="18.246" transform="translate(114.854 6.249)" fill="none" stroke="#f1f1f2" stroke-linecap="round" stroke-linejoin="round" stroke-width="5"/>
    </g>
  </g>
</svg>
