<svg xmlns="http://www.w3.org/2000/svg" xmlns:xlink="http://www.w3.org/1999/xlink" width="69.09" height="70.078" viewBox="0 0 69.09 70.078">
  <defs>
    <radialGradient id="radial-gradient" cx="0.5" cy="0.5" r="0.5" gradientUnits="objectBoundingBox">
      <stop offset="0" stop-color="#4827a3"/>
      <stop offset="1" stop-color="#292f5f"/>
    </radialGradient>
  </defs>
  <g id="Group_4467" data-name="Group 4467" transform="translate(-1047.5 -695)">
    <path id="Path_6478" data-name="Path 6478" d="M754.213,721.513v-.734l6.164-1.7q14.1-3.877,28.191-7.757a.688.688,0,0,1,.387,0q3.81,1.052,7.622,2.1l17.495,4.81q4.525,1.244,9.049,2.489c.14.038.192.083.18.22-.028.307-.033.616-.053.925-.109,1.662-.215,3.324-.361,4.983-.117,1.332-.246,2.663-.4,3.992q-.215,1.867-.489,3.729c-.205,1.412-.432,2.821-.692,4.225-.391,2.11-.846,4.209-1.379,6.293a74.082,74.082,0,0,1-3.163,9.686,53.572,53.572,0,0,1-5.774,10.693,41.68,41.68,0,0,1-8.166,8.7,41.037,41.037,0,0,1-13.034,6.892,6.7,6.7,0,0,0-.929.311h-.169a.94.94,0,0,0-.092-.042,45.554,45.554,0,0,1-6.159-2.424,40.738,40.738,0,0,1-10.511-7.28,46.271,46.271,0,0,1-8.87-11.891,66.136,66.136,0,0,1-5.305-13.663c-.58-2.119-1.069-4.256-1.489-6.407q-.5-2.558-.868-5.133c-.184-1.28-.339-2.562-.481-3.846q-.238-2.168-.4-4.341c-.116-1.565-.216-3.132-.266-4.7C754.25,721.605,754.277,721.547,754.213,721.513Z" transform="translate(293.287 -16.3)" fill="url(#radial-gradient)"/>
    <g id="Group_4425" data-name="Group 4425" transform="translate(834.953 227.078)">
      <circle id="Ellipse_58" data-name="Ellipse 58" cx="8.634" cy="8.634" r="8.634" transform="matrix(0.907, -0.422, 0.422, 0.907, 235.912, 490.17)" fill="#9ea8ba"/>
      <g id="Group_4424" data-name="Group 4424" transform="translate(233.799 480.771)">
        <g id="Group_4418" data-name="Group 4418" transform="translate(0 0)">
          <rect id="Rectangle_896" data-name="Rectangle 896" width="23.831" height="2.915" transform="translate(1.467 12.319)" fill="#6b7282"/>
          <path id="Path_6604" data-name="Path 6604" d="M247.383,480.771a13.584,13.584,0,1,0,13.584,13.584A13.584,13.584,0,0,0,247.383,480.771Zm0,24.968a11.384,11.384,0,1,1,11.384-11.384A11.4,11.4,0,0,1,247.383,505.739Z" transform="translate(-233.799 -480.771)" fill="#798093"/>
          <g id="Group_4415" data-name="Group 4415" transform="translate(0.575 0.709)">
            <path id="Path_6605" data-name="Path 6605" d="M249.963,484.827A12.875,12.875,0,1,0,262.838,497.7,12.89,12.89,0,0,0,249.963,484.827Zm0,25.226A12.351,12.351,0,1,1,262.314,497.7,12.365,12.365,0,0,1,249.963,510.053Z" transform="translate(-237.088 -484.827)" fill="#9daed1"/>
          </g>
          <path id="Path_6606" data-name="Path 6606" d="M282.672,525.648l-8.286-4.428-8.286,4.428V480.772h16.572Z" transform="translate(-260.453 -480.771)" fill="#ff2e2a"/>
          <g id="Group_4416" data-name="Group 4416" transform="translate(5.646 0)">
            <path id="Path_6607" data-name="Path 6607" d="M267.383,480.772H266.1v44.876l1.283-.686Z" transform="translate(-266.1 -480.772)" fill="#e3211e"/>
            <path id="Path_6608" data-name="Path 6608" d="M353.982,480.772V525l1.21.647V480.772Z" transform="translate(-338.62 -480.772)" fill="#e3211e"/>
            <path id="Path_6609" data-name="Path 6609" d="M295.977,480.772h-9.533v42.976l4.73-2.528,4.8,2.567Z" transform="translate(-282.888 -480.772)" fill="#e3211e"/>
            <path id="Path_6610" data-name="Path 6610" d="M303.429,522.16l1.761-.941,1.123.6V480.772h-2.884Z" transform="translate(-296.904 -480.772)" fill="#bf0930"/>
          </g>
          <path id="Path_6611" data-name="Path 6611" d="M266.1,513.062a11.317,11.317,0,0,0,16.572-.749V497.648A11.317,11.317,0,0,0,266.1,496.9Z" transform="translate(-260.454 -491.397)" fill="#bf0930" opacity="0.68" style="mix-blend-mode: multiply;isolation: isolate"/>
          <path id="Path_6612" data-name="Path 6612" d="M262.96,520.217a10.284,10.284,0,1,1,10.284-10.285A10.3,10.3,0,0,1,262.96,520.217Z" transform="translate(-249.376 -496.348)" fill="#b0b9cc"/>
          <circle id="Ellipse_59" data-name="Ellipse 59" cx="8.634" cy="8.634" r="8.634" transform="matrix(0.907, -0.422, 0.422, 0.907, 2.113, 9.399)" fill="#9ea8ba"/>
          <g id="Group_4417" data-name="Group 4417" transform="translate(5.355 4.976)" opacity="0.43" style="mix-blend-mode: screen;isolation: isolate">
            <path id="Path_6613" data-name="Path 6613" d="M289.541,518.229,278.83,531.735a8.688,8.688,0,0,0,.757.6l10.708-13.5A8.638,8.638,0,0,0,289.541,518.229Z" transform="translate(-276.314 -516.657)" fill="#b0b9cc"/>
            <path id="Path_6614" data-name="Path 6614" d="M301.226,528.118,290.8,541.264q.226.105.459.2l10.263-12.941Q301.38,528.315,301.226,528.118Z" transform="translate(-286.191 -524.817)" fill="#b0b9cc"/>
            <path id="Path_6615" data-name="Path 6615" d="M280.346,512.06l-10.179,12.835q.138.211.288.413l10.359-13.061Q280.583,512.147,280.346,512.06Z" transform="translate(-269.165 -511.566)" fill="#b0b9cc"/>
            <path id="Path_6616" data-name="Path 6616" d="M273.338,509.236l-8.9,11.225q.129.4.3.791l9.446-11.91Q273.764,509.269,273.338,509.236Z" transform="translate(-264.435 -509.236)" fill="#b0b9cc"/>
          </g>
          <path id="Path_6617" data-name="Path 6617" d="M262.812,517.721a8.645,8.645,0,0,1,8.286-8.627,8.634,8.634,0,1,0,0,17.255A8.645,8.645,0,0,1,262.812,517.721Z" transform="translate(-257.165 -504.137)" fill="#8a99ad"/>
        </g>
        <path id="Path_6618" data-name="Path 6618" d="M295.186,537.626h3.585V539.4h-6.435v-1.827c1.126-.967,3.927-3.3,3.927-4.768a1.188,1.188,0,0,0-1.292-1.247,5.341,5.341,0,0,0-2.337.687l-.063-1.954c4.858-1.923,7.538,1.147,5.247,4.531A15.6,15.6,0,0,1,295.186,537.626Z" transform="translate(-282.103 -521.144)" fill="#bac6d8"/>
        <path id="Path_6619" data-name="Path 6619" d="M295.186,537.626h3.585V539.4h-6.435v-1.827c1.126-.967,3.927-3.3,3.927-4.768a1.188,1.188,0,0,0-1.292-1.247,5.341,5.341,0,0,0-2.337.687l-.063-1.954c4.858-1.923,7.538,1.147,5.247,4.531A15.6,15.6,0,0,1,295.186,537.626Z" transform="translate(-282.103 -521.144)" fill="#bac6d8"/>
        <path id="Path_6620" data-name="Path 6620" d="M290.336,538.1v-2.337l.267-.229c1-.857,3.66-3.134,3.66-4.378a.846.846,0,0,0-.943-.9,4.924,4.924,0,0,0-2.178.648l-.491.251-.089-2.751.229-.091a8.007,8.007,0,0,1,2.921-.619,3.532,3.532,0,0,1,3.3,1.682,3.863,3.863,0,0,1-.551,3.989,13.992,13.992,0,0,1-2.013,2.258h3.027V538.1Z" transform="translate(-280.453 -519.493)" fill="#798093"/>
        <path id="Path_6621" data-name="Path 6621" d="M295.186,537.626h3.585V539.4h-6.435v-1.827c1.126-.967,3.927-3.3,3.927-4.768a1.188,1.188,0,0,0-1.292-1.247,5.341,5.341,0,0,0-2.337.687l-.063-1.954c4.858-1.923,7.538,1.147,5.247,4.531A15.6,15.6,0,0,1,295.186,537.626Z" transform="translate(-282.103 -521.144)" fill="#bac6d8"/>
        <path id="Path_6622" data-name="Path 6622" d="M303.741,531.673a3.8,3.8,0,0,1,2.762.273c.609.394,1.326,2.1,0,3.952a21.808,21.808,0,0,1-2.906,3.059,32.392,32.392,0,0,0,2.776-3.151,3.2,3.2,0,0,0,.454-3.226,1.81,1.81,0,0,0-1.688-.946A6.4,6.4,0,0,0,303.741,531.673Z" transform="translate(-291.394 -522.671)" fill="#ceddf4"/>
        <g id="Group_4419" data-name="Group 4419" transform="translate(3.797 6.847)">
          <path id="Path_6623" data-name="Path 6623" d="M255.616,527.785a9.577,9.577,0,0,1,2.4-7.816.087.087,0,0,1,.129.118,9.4,9.4,0,0,0-2.355,7.674A.087.087,0,0,1,255.616,527.785Z" transform="translate(-255.519 -519.94)" fill="#ceddf4"/>
        </g>
        <g id="Group_4420" data-name="Group 4420" transform="translate(4.054 15.443)">
          <path id="Path_6624" data-name="Path 6624" d="M257.98,571.73a9.525,9.525,0,0,1-.988-2.508.087.087,0,0,1,.17-.04c.48,2.02,1.154,2.458.937,2.582C258.086,571.77,258,571.771,257.98,571.73Z" transform="translate(-256.989 -569.114)" fill="#ceddf4"/>
        </g>
        <g id="Group_4421" data-name="Group 4421" transform="translate(5.5 18.669)">
          <path id="Path_6625" data-name="Path 6625" d="M273.146,591.811a9.6,9.6,0,0,1-7.865-4.105.087.087,0,0,1,.144-.1,9.424,9.424,0,0,0,7.722,4.03A.087.087,0,0,1,273.146,591.811Z" transform="translate(-265.263 -587.568)" fill="#ceddf4"/>
        </g>
        <g id="Group_4422" data-name="Group 4422" transform="translate(19.247 5.837)">
          <path id="Path_6626" data-name="Path 6626" d="M344.212,528.76a9.412,9.412,0,0,0-.27-14.439.087.087,0,0,1,.11-.136,9.587,9.587,0,0,1,.275,14.707A.087.087,0,0,1,344.212,528.76Z" transform="translate(-343.908 -514.165)" fill="#ceddf4"/>
        </g>
        <g id="Group_4423" data-name="Group 4423" transform="translate(7.122 4.887)">
          <path id="Path_6627" data-name="Path 6627" d="M274.572,509.882a9.613,9.613,0,0,1,1.66-1.143.087.087,0,0,1,.083.154,9.449,9.449,0,0,0-1.63,1.122A.087.087,0,0,1,274.572,509.882Z" transform="translate(-274.54 -508.727)" fill="#ceddf4"/>
        </g>
      </g>
    </g>
  </g>
</svg>
