<svg xmlns="http://www.w3.org/2000/svg" width="21.027" height="23.294" viewBox="0 0 21.027 23.294">
  <path id="Path_6365" data-name="Path 6365" d="M754.213,714.695v-.244l1.876-.564,8.58-2.578a.192.192,0,0,1,.118,0l2.32.7,5.325,1.6q1.377.414,2.754.827c.043.013.058.028.055.073-.009.1-.01.2-.016.307-.033.552-.065,1.1-.11,1.657-.036.443-.075.885-.121,1.327-.044.414-.094.827-.149,1.239-.062.469-.132.938-.211,1.4-.119.7-.257,1.4-.42,2.092a26.229,26.229,0,0,1-.963,3.22,18.385,18.385,0,0,1-1.757,3.554,13.441,13.441,0,0,1-2.485,2.893,12.173,12.173,0,0,1-3.967,2.291,1.943,1.943,0,0,0-.283.1h-.051a.248.248,0,0,0-.028-.014,13.208,13.208,0,0,1-1.874-.806,12.443,12.443,0,0,1-3.2-2.42,15.363,15.363,0,0,1-2.7-3.953,23.243,23.243,0,0,1-1.615-4.542c-.177-.7-.325-1.415-.453-2.13q-.152-.85-.264-1.706c-.056-.425-.1-.852-.146-1.278q-.073-.721-.122-1.443c-.035-.52-.066-1.041-.081-1.562C754.224,714.726,754.233,714.706,754.213,714.695Z" transform="translate(-754.213 -711.3)" fill="#e82c3e"/>
</svg>
