<svg xmlns="http://www.w3.org/2000/svg" width="20.621" height="19.148" viewBox="0 0 20.621 19.148">
  <g id="Group_4219" data-name="Group 4219" transform="translate(-142.63 -169.47)">
    <path id="Path_6481" data-name="Path 6481" d="M163.268,174.426v.481a1.984,1.984,0,0,0-.083.365,3.85,3.85,0,0,1-1.306,1.937,8.24,8.24,0,0,1-2.206,1.328,16.773,16.773,0,0,1-5.824,1.227,20.176,20.176,0,0,1-2.137-.02,18.522,18.522,0,0,1-2.871-.39,13.348,13.348,0,0,1-3.307-1.151,6.633,6.633,0,0,1-2.111-1.613,3.055,3.055,0,0,1-.771-1.807,2.947,2.947,0,0,1,.58-1.815,5.569,5.569,0,0,1,1.827-1.636,11.74,11.74,0,0,1,2.994-1.235,18.137,18.137,0,0,1,3.792-.595,19.967,19.967,0,0,1,3.953.169,15.757,15.757,0,0,1,3,.715,9.244,9.244,0,0,1,3.1,1.7,4.01,4.01,0,0,1,1.228,1.771C163.179,174.044,163.211,174.238,163.268,174.426Z" transform="translate(-0.017)" fill="#fff"/>
    <path id="Path_6482" data-name="Path 6482" d="M163.289,380.3a2.215,2.215,0,0,0-.084.378,3.74,3.74,0,0,1-1.181,1.825,8.655,8.655,0,0,1-2.774,1.62,15.443,15.443,0,0,1-2.856.775,19.881,19.881,0,0,1-4.065.281,18.9,18.9,0,0,1-2.755-.28,14.283,14.283,0,0,1-3.852-1.206,7.215,7.215,0,0,1-2.007-1.4,3.541,3.541,0,0,1-.984-1.7,2.561,2.561,0,0,1,.33-1.887.429.429,0,0,1,.091-.14,6.131,6.131,0,0,0,2.652,2.177,13.828,13.828,0,0,0,1.818.784,13.61,13.61,0,0,0,1.789.426,18.527,18.527,0,0,0,2.037.234c.7.042,1.392.061,2.09.041.661-.019,1.32-.053,1.976-.131a12.027,12.027,0,0,0,3.523-.841,13.133,13.133,0,0,0,2.187-1.123,5.333,5.333,0,0,0,1.576-1.575,3.732,3.732,0,0,1,.369.777c.055.157.066.323.119.479Z" transform="translate(-0.037 -196.564)" fill="#fff"/>
    <path id="Path_6483" data-name="Path 6483" d="M163.251,306.517a.672.672,0,0,0-.058.248,3.448,3.448,0,0,1-.9,1.635,7.273,7.273,0,0,1-2.271,1.576,14.116,14.116,0,0,1-3.256,1.042,18.452,18.452,0,0,1-2.518.328,20.953,20.953,0,0,1-2.785-.014,18.307,18.307,0,0,1-3.027-.463,12.452,12.452,0,0,1-3.226-1.228,6.071,6.071,0,0,1-1.937-1.619,3.036,3.036,0,0,1-.638-1.662,2.5,2.5,0,0,1,.3-1.267c.054-.11.115-.216.177-.331a6.528,6.528,0,0,0,2.96,2.33,10.38,10.38,0,0,0,3.411,1.086,21.578,21.578,0,0,0,3.935.261,18.342,18.342,0,0,0,4.435-.572,8.588,8.588,0,0,0,1.506-.568c.422-.205.86-.379,1.269-.612a6.2,6.2,0,0,0,1.87-1.535c.1-.121.18-.251.276-.384a3.164,3.164,0,0,1,.459,1.2c0,.025-.011.058.023.074Z" transform="translate(0 -127.186)" fill="#fff"/>
  </g>
</svg>
