<svg xmlns="http://www.w3.org/2000/svg" width="13.953" height="16.001" viewBox="0 0 13.953 16.001">
  <path id="Path_6478" data-name="Path 6478" d="M754.213,713.486v-.157l1.156-.363,5.285-1.66a.113.113,0,0,1,.072,0l1.429.45,3.28,1.029,1.7.533c.026.008.036.018.034.047-.005.066-.006.132-.01.2-.021.356-.04.711-.068,1.067-.022.285-.046.57-.075.855q-.04.4-.092.8c-.038.3-.081.6-.13.9q-.11.677-.259,1.347a17.5,17.5,0,0,1-.593,2.073,12.068,12.068,0,0,1-1.082,2.289,8.562,8.562,0,0,1-1.531,1.863,7.429,7.429,0,0,1-2.444,1.475,1.154,1.154,0,0,0-.174.067h-.032l-.017-.009a7.932,7.932,0,0,1-1.155-.519,7.7,7.7,0,0,1-1.971-1.558,9.918,9.918,0,0,1-1.663-2.545,15.424,15.424,0,0,1-.995-2.924c-.109-.454-.2-.911-.279-1.371q-.093-.547-.163-1.1c-.035-.274-.064-.548-.09-.823q-.045-.464-.075-.929c-.022-.335-.041-.67-.05-1.006C754.22,713.506,754.225,713.493,754.213,713.486Z" transform="translate(-753.713 -710.799)" fill="none" stroke="#8d8d8d" stroke-width="1"/>
</svg>
